<svg xmlns="http://www.w3.org/2000/svg" width="494.927" height="104.832" viewBox="0 0 494.927 104.832">
  <g id="Group_640" data-name="Group 640" transform="translate(-776 -593)">
    <g id="Group_579" data-name="Group 579" transform="translate(640 78.337)">
      <path id="folder-detail" d="M156.021,62.277V59.484a2.793,2.793,0,0,0-2.793-2.793H139.261c.07-1.984-.489-4.19-3.031-4.19h-7.947c-2.989,0-2.989,2.528-2.989,4.19v5.587a2.793,2.793,0,0,0-2.793,2.793V86.021a2.793,2.793,0,0,0,2.793,2.793h30.728a2.793,2.793,0,0,0,2.793-2.793V65.071a2.793,2.793,0,0,0-2.793-2.793ZM132.277,77.641h6.984a1.4,1.4,0,1,1,0,2.793h-6.984a1.4,1.4,0,1,1,0-2.793Zm16.761-4.19H132.277a1.4,1.4,0,1,1,0-2.793h16.761a1.4,1.4,0,1,1,0,2.793ZM128.087,56.69a10.242,10.242,0,0,1,0-1.4H136.3c.531,1.145-.712,4.19,1.508,4.19h15.42v2.793H128.087Z" transform="translate(246.169 530.343)" fill="#2f2f2f"/>
      <path id="Path_437" data-name="Path 437" d="M226.353,163.765H202.545l-3.032-5.012a2.506,2.506,0,0,0-2.142-1.253h-8.608a5.011,5.011,0,0,0-5.012,5.012v26.313a5.011,5.011,0,0,0,5.012,5.012h37.59a5.011,5.011,0,0,0,5.012-5.012V168.777a5.011,5.011,0,0,0-5.012-5.012Z" transform="translate(111.303 425.657)" fill="#2f2f2f"/>
      <g id="Group_570" data-name="Group 570" transform="translate(136 583.157)">
        <path id="Path_460" data-name="Path 460" d="M207.542,214.906a6.262,6.262,0,0,1-3.757-1.252L183.75,198.89v22.878a5.008,5.008,0,0,0,5.009,5.009h37.567a5.008,5.008,0,0,0,5.009-5.009V198.89L211.3,213.679a6.261,6.261,0,0,1-3.757,1.227Z" transform="translate(-183.75 -190.462)" fill="#2f2f2f"/>
        <path id="Path_461" data-name="Path 461" d="M228.83,140H186.254a2.5,2.5,0,0,0-2.5,2.5v1.252l22.3,16.442a2.5,2.5,0,0,0,2.981,0l22.3-16.442V142.5a2.5,2.5,0,0,0-2.5-2.5Z" transform="translate(-183.75 -140)" fill="#2f2f2f"/>
      </g>
      <g id="Group_575" data-name="Group 575" transform="translate(431.36 582.505)">
        <path id="Path_418" data-name="Path 418" d="M302.305,222.784a2.974,2.974,0,0,1-2.719-4.18,8.09,8.09,0,1,0,3.616,4.042A3,3,0,0,1,302.305,222.784Z" transform="translate(-262.341 -207.551)" fill="#2f2f2f"/>
        <path id="Path_417" data-name="Path 417" d="M158.838,156.453S144.956,140,126.059,140,93.28,156.453,93.28,156.453a2.747,2.747,0,0,0,0,3.41s13.882,16.452,32.779,16.452,32.778-16.453,32.778-16.453a2.742,2.742,0,0,0,0-3.409Zm-32.779,15.681a13.977,13.977,0,1,1,13.977-13.977A13.977,13.977,0,0,1,126.059,172.134Z" transform="translate(-92.687 -140)" fill="#2f2f2f"/>
      </g>
      <g id="Group_576" data-name="Group 576" transform="translate(526.039 583.157)">
        <path id="Path_555" data-name="Path 555" d="M432.988,180.489a2.229,2.229,0,1,0-2.756,3.5,5.624,5.624,0,0,1-.234,8.876,1.96,1.96,0,0,0-.327,2.8l.187.187a2.256,2.256,0,0,0,3.036.374,10.08,10.08,0,0,0,.094-15.744Z" transform="translate(-400.426 -170.184)" fill="#2f2f2f"/>
        <path id="Path_556" data-name="Path 556" d="M496.007,105.775a2.261,2.261,0,0,0-3.083.327,2.206,2.206,0,0,0,.28,3.083,13.784,13.784,0,0,1,0,21.4,2.226,2.226,0,0,0,2.8,3.457,18.128,18.128,0,0,0,0-28.264Z" transform="translate(-458.353 -101.729)" fill="#2f2f2f"/>
        <path id="Path_557" data-name="Path 557" d="M103.528,63.025,92.175,71.761H86.616A2.612,2.612,0,0,0,84,74.377V86.71a2.612,2.612,0,0,0,2.616,2.616h5.559l11.4,8.736a3.007,3.007,0,0,0,4.858-2.429V65.408a3.049,3.049,0,0,0-4.905-2.382Z" transform="translate(-84 -62.39)" fill="#2f2f2f"/>
      </g>
      <path id="Path_729" data-name="Path 729" d="M162.4,171.785v22.829a6.633,6.633,0,0,0,6.585,6.585h45.659a6.633,6.633,0,0,0,6.585-6.585V171.785a6.633,6.633,0,0,0-6.585-6.585H168.986a6.634,6.634,0,0,0-6.585,6.585Zm44.341,0h7.025v4.39h-7.025Zm0,9.659h7.025v4.39h-7.025Zm-12.292-9.659h7.025v4.39h-7.025Zm0,9.659h7.025v4.39h-7.025Zm-12.293-9.659h7.025v4.39h-7.025Zm0,9.659h7.025v4.39h-7.025Zm-1.317,9.658h23.8v4.39h-23.8Zm-10.976-19.317h7.025v4.39h-7.025Zm0,9.659h7.025v4.39h-7.025Z" transform="translate(45.334 417.957)" fill="#2f2f2f"/>
      <path id="Path_730" data-name="Path 730" d="M120.587,31.02v0L105.771,16.2a3.341,3.341,0,0,0-4.725,0L86.238,31.009a.029.029,0,0,1-.015.015,3.349,3.349,0,0,0,.008,4.721,3.314,3.314,0,0,0,2.217.975.953.953,0,0,0,.1.008h.593v10.9a3.916,3.916,0,0,0,3.91,3.914h5.8a1.065,1.065,0,0,0,1.063-1.063V41.93a1.785,1.785,0,0,1,1.785-1.785h3.417A1.785,1.785,0,0,1,106.9,41.93v8.547a1.065,1.065,0,0,0,1.063,1.063h5.8a3.916,3.916,0,0,0,3.91-3.914v-10.9h.546a3.345,3.345,0,0,0,2.366-5.707Z" transform="translate(509.362 567.932)" fill="#2f2f2f"/>
    </g>
    <g id="Group_578" data-name="Group 578" transform="translate(640 89.337)">
      <path id="Path_398" data-name="Path 398" d="M177.988,24.369a13.429,13.429,0,0,0-26.858,0V37.8a9.479,9.479,0,1,0,18.888-1.157,13.431,13.431,0,0,0,7.971-12.272Zm-9.577,8.664-2.666,1.188.353,2.9a5.725,5.725,0,0,1,.041.68,5.53,5.53,0,0,1-11.06,0h1.58a5.53,5.53,0,0,0,1.58-10.829v-2.6a6.32,6.32,0,1,1,12.64,0h3.16a9.5,9.5,0,0,1-5.628,8.665Z" transform="translate(397.268 492.723)" fill="#2f2f2f"/>
      <path id="location" d="M175.668,49.275a3.893,3.893,0,1,1-1.14-2.754A3.895,3.895,0,0,1,175.668,49.275Zm10.384,0c0,7.606-12.8,21.092-13.343,21.662a1.3,1.3,0,0,1-1.869,0c-.545-.571-13.343-14.056-13.343-21.662a14.278,14.278,0,0,1,28.555,0Zm-7.788,0a6.49,6.49,0,1,0-1.9,4.589A6.489,6.489,0,0,0,178.264,49.275Z" transform="translate(338.51 468.666)" fill="#2f2f2f"/>
      <path id="Path_597" data-name="Path 597" d="M149.769,62.16a18.169,18.169,0,1,0,18.169,18.169A18.164,18.164,0,0,0,149.769,62.16Zm10.356,12.446L148.088,87.914a2.191,2.191,0,0,1-1.454.681h-.045A2.189,2.189,0,0,1,145.135,88l-5.677-5.859a1.992,1.992,0,0,1,2.861-2.771l4.224,4.315,10.583-11.719a1.963,1.963,0,0,1,2.816-.136,1.91,1.91,0,0,1,.182,2.771Z" transform="translate(183.909 441.503)" fill="#2f2f2f"/>
      <path id="Path_517" data-name="Path 517" d="M181.91,105.489s5.566,6.018,12.337,7.773a8.747,8.747,0,0,0,8.425-1.956s2.457-1.4.652-4.263l-4.664-5.667a2.53,2.53,0,0,0-3.259-.552l-3.41,2.708s-7.974-5.316-10.531-13.289l2.608-2.106a2.979,2.979,0,0,0,.552-4.463l-4.564-5.667a3.018,3.018,0,0,0-3.711-.1,10.48,10.48,0,0,0-4.112,9.679s-.6,6.67,9.68,17.9Z" transform="translate(426.941 426.377)" fill="#2f2f2f"/>
      <path id="Path_484" data-name="Path 484" d="M102.7,14.547A18.169,18.169,0,1,1,84.55,32.693,18.183,18.183,0,0,1,102.7,14.547ZM97.311,25.408l5.385,5.385,5.43-5.385a1.344,1.344,0,0,1,1.9,1.9l-5.43,5.385,5.43,5.43a1.344,1.344,0,0,1-1.9,1.9l-5.43-5.43-5.385,5.43a1.344,1.344,0,0,1-1.9-1.9l5.385-5.43L95.41,27.308A1.344,1.344,0,0,1,97.311,25.408Z" transform="translate(291.132 489.116)" fill="#2f2f2f" fill-rule="evenodd"/>
      <path id="Path_728" data-name="Path 728" d="M155.357,103.515A18.157,18.157,0,1,0,137.2,85.357,18.149,18.149,0,0,0,155.357,103.515Zm0-29.052V96.252a10.894,10.894,0,0,1,0-21.789Z" transform="translate(298.656 436.485)" fill="#2f2f2f"/>
      <g id="Group_577" data-name="Group 577" transform="translate(-322 24.663)">
        <rect id="Rectangle_275" data-name="Rectangle 275" width="36" height="36" rx="12" transform="translate(458 479)" fill="#2f2f2f"/>
        <g id="Group_573" data-name="Group 573" transform="translate(463.705 488.005)">
          <path id="font-size" d="M170.848,107.069a1.8,1.8,0,0,1-1.8,1.8h-1.8v5.4a1.8,1.8,0,1,1-3.6,0v-5.4h-1.8a1.8,1.8,0,1,1,0-3.6h7.2a1.8,1.8,0,0,1,1.8,1.8Zm12.594-9H170.848a1.8,1.8,0,1,0,0,3.6h4.5v12.594a1.8,1.8,0,1,0,3.6,0V101.672h4.5a1.8,1.8,0,1,0,0-3.6Z" transform="translate(-160.053 -98.074)" fill="#fff"/>
        </g>
      </g>
      <path id="Path_731" data-name="Path 731" d="M227.886,154.88l-6.9-6.9a15.927,15.927,0,1,0-2.994,2.994l6.9,6.9a2.123,2.123,0,0,0,2.994-2.994Zm-13.178-14.43H210.46V144.7a2.124,2.124,0,1,1-4.247,0V140.45h-4.247a2.124,2.124,0,1,1,0-4.247h4.247v-4.247a2.124,2.124,0,1,1,4.247,0V136.2h4.247a2.124,2.124,0,1,1,0,4.247Z" transform="translate(3.439 381.278)" fill="#2f2f2f"/>
      <path id="Path_732" data-name="Path 732" d="M227.886,154.88l-6.9-6.9a15.927,15.927,0,1,0-2.994,2.994l6.9,6.9a2.123,2.123,0,0,0,2.994-2.994Zm-13.178-14.43H201.966a2.124,2.124,0,1,1,0-4.247h12.742a2.124,2.124,0,1,1,0,4.247Z" transform="translate(63.276 381.278)" fill="#2f2f2f"/>
    </g>
  </g>
</svg>
