<svg xmlns="http://www.w3.org/2000/svg" width="59.917" height="34.952" viewBox="0 0 59.917 34.952">
  <g id="Group_207" data-name="Group 207" transform="translate(-1404.398 -575.07)">
    <path id="Path_229" data-name="Path 229" d="M970.92,703.958H916a2.5,2.5,0,0,1,0-4.993H970.92a2.5,2.5,0,1,1,0,4.993Z" transform="translate(490.898 -123.895)"/>
    <path id="Path_230" data-name="Path 230" d="M970.92,718.936H916a2.5,2.5,0,0,1,0-4.993H970.92a2.5,2.5,0,1,1,0,4.993Z" transform="translate(490.898 -123.895)"/>
    <path id="Path_231" data-name="Path 231" d="M970.92,733.917H916a2.5,2.5,0,0,1,0-4.993H970.92a2.5,2.5,0,1,1,0,4.993Z" transform="translate(490.898 -123.895)"/>
  </g>
</svg>
