<svg id="Group_582" data-name="Group 582" xmlns="http://www.w3.org/2000/svg" width="162.628" height="88.484" viewBox="0 0 162.628 88.484">
  <path id="Path_418" data-name="Path 418" d="M323.4,230.205a7.246,7.246,0,0,1-6.625-10.184,19.711,19.711,0,1,0,8.81,9.848A7.3,7.3,0,0,1,323.4,230.205Z" transform="translate(-226.021 -193.089)" fill="#2f2f2f"/>
  <path id="Path_417" data-name="Path 417" d="M253.87,180.089S220.047,140,174,140s-79.869,40.089-79.869,40.089a6.694,6.694,0,0,0,0,8.309S127.958,228.484,174,228.484,253.866,188.4,253.866,188.4a6.682,6.682,0,0,0,0-8.305ZM174,218.3a34.057,34.057,0,1,1,34.057-34.057A34.056,34.056,0,0,1,174,218.3Z" transform="translate(-92.687 -140)" fill="#2f2f2f"/>
</svg>
