<svg xmlns="http://www.w3.org/2000/svg" width="116.705" height="116.705" viewBox="0 0 116.705 116.705">
  <g id="Group_644" data-name="Group 644" transform="translate(-452.154 -769.096)">
    <g id="Group_637" data-name="Group 637" transform="translate(458.325 783.309)">
      <path id="Path_747" data-name="Path 747" d="M334.691,260.681a4.013,4.013,0,1,1-4.013-4.013,4.012,4.012,0,0,1,4.013,4.013" transform="translate(-278.999 -216.541)"/>
      <path id="Path_748" data-name="Path 748" d="M241.615,140C224.174,140,210,150.794,210,164.077s14.174,24.077,31.615,24.077,31.615-10.794,31.615-24.077S259.057,140,241.615,140Zm0,4.013a1.6,1.6,0,0,1,1.756,1.338v4.013a1.822,1.822,0,0,1-3.513,0V145.35A1.6,1.6,0,0,1,241.615,144.013ZM229.2,154.62a2.127,2.127,0,0,1-1.247.388,2.169,2.169,0,0,1-1.247-.388l-3.723-2.836a1.134,1.134,0,0,1,0-1.9,2.181,2.181,0,0,1,2.494,0l3.723,2.836A1.134,1.134,0,0,1,229.2,154.62Zm-5.146,9.457a1.6,1.6,0,0,1-1.756,1.338h-5.269a1.387,1.387,0,1,1,0-2.675H222.3A1.6,1.6,0,0,1,224.051,164.077Zm-1.072,12.292,3.723-2.836a2.181,2.181,0,0,1,2.494,0,1.134,1.134,0,0,1,0,1.9l-3.723,2.836a2.2,2.2,0,0,1-2.495,0A1.135,1.135,0,0,1,222.98,176.369Zm6.341-12.292c0-5.163,5.515-9.363,12.3-9.363s12.3,4.2,12.3,9.363-5.515,9.363-12.3,9.363S229.32,169.24,229.32,164.077Zm25.961-9.069a2.129,2.129,0,0,1-1.247-.388,1.134,1.134,0,0,1,0-1.9l3.723-2.836a2.181,2.181,0,0,1,2.494,0,1.134,1.134,0,0,1,0,1.9l-3.723,2.836a2.164,2.164,0,0,1-1.246.388Zm4.971,21.361a1.134,1.134,0,0,1,0,1.9,2.2,2.2,0,0,1-2.495,0l-3.723-2.836a1.134,1.134,0,0,1,0-1.9,2.181,2.181,0,0,1,2.494,0ZM239.86,178.79a1.822,1.822,0,0,1,3.513,0V182.8a1.822,1.822,0,0,1-3.513,0Zm19.32-14.713a1.6,1.6,0,0,1,1.756-1.338h5.269a1.387,1.387,0,1,1,0,2.675h-5.269A1.6,1.6,0,0,1,259.18,164.077Z" transform="translate(-189.935 -119.937)"/>
      <path id="Path_749" data-name="Path 749" d="M196.42,138.25c-.939-1.2-23.223-29.36-51.412-29.36S94.534,137.046,93.6,138.25a1.154,1.154,0,0,0,.016,1.5c.939,1.151,23.223,28,51.4,28s50.457-26.846,51.4-28a1.154,1.154,0,0,0,.016-1.5Zm-51.412,26.82c-24.007,0-44.365-21.762-48.186-26.1,3.774-4.508,24.147-27.408,48.186-27.408,24.023,0,44.413,22.9,48.186,27.408-3.821,4.334-24.164,26.1-48.186,26.1Z" transform="translate(-93.328 -94.177)"/>
      <path id="Path_750" data-name="Path 750" d="M330.681,458.89a4.024,4.024,0,0,0-4.013,4.013v5.35a4.013,4.013,0,1,0,8.025,0V462.9A4.025,4.025,0,0,0,330.681,458.89Z" transform="translate(-279.001 -383.985)"/>
      <path id="Path_751" data-name="Path 751" d="M330.681,36.712a4.025,4.025,0,0,0,4.013-4.013V27.35a4.013,4.013,0,1,0-8.025,0V32.7A4.024,4.024,0,0,0,330.681,36.712Z" transform="translate(-279.001 -23.337)"/>
      <path id="Path_752" data-name="Path 752" d="M144.966,80.84a4.01,4.01,0,1,0,5.671-5.671l-3.786-3.786a4.113,4.113,0,0,0-5.671,0,4,4,0,0,0,0,5.671Z" transform="translate(-131.976 -62.181)"/>
      <path id="Path_753" data-name="Path 753" d="M144.967,422.517l-3.786,3.786a4.01,4.01,0,1,0,5.671,5.671l3.786-3.785a4.01,4.01,0,0,0-5.671-5.671Z" transform="translate(-131.977 -352.895)"/>
      <path id="Path_754" data-name="Path 754" d="M498.182,422.518a4.01,4.01,0,0,0-5.671,5.671l3.786,3.786a4.01,4.01,0,1,0,5.671-5.671Z" transform="translate(-407.811 -352.896)"/>
      <path id="Path_755" data-name="Path 755" d="M495.354,82.02a4.011,4.011,0,0,0,2.836-1.177l3.786-3.786a4.005,4.005,0,0,0,0-5.672,4.113,4.113,0,0,0-5.671,0l-3.786,3.786a4.013,4.013,0,0,0,2.836,6.849Z" transform="translate(-407.818 -62.184)"/>
    </g>
    <rect id="Rectangle_278" data-name="Rectangle 278" width="158.759" height="6.287" transform="translate(456.6 769.096) rotate(45)" fill="red"/>
  </g>
</svg>
