<svg xmlns="http://www.w3.org/2000/svg" width="145.3" height="116.705" viewBox="0 0 145.3 116.705">
  <g id="Group_643" data-name="Group 643" transform="translate(-188.993 -769.096)">
    <path id="Path_733" data-name="Path 733" d="M126.737,186.117h0a2.081,2.081,0,0,1-1.859-2.229c2.229-16.351,34.188-34.56,63.174-36.046a1.859,1.859,0,1,1,0,3.717c-27.127,1.113-57.971,18.209-59.829,32.7a1.7,1.7,0,0,1-1.487,1.857Zm115.942,50.167a90.438,90.438,0,0,0,23.04-12.634,2.292,2.292,0,0,0,.372-2.6c-.372-.743-1.859-.743-2.6-.372a82.3,82.3,0,0,1-21.924,12.263,1.656,1.656,0,0,0-1.115,2.229,1.992,1.992,0,0,0,2.228,1.115Zm27.5-41.62c0,21.554-30.472,38.276-69.119,38.276s-69.119-16.722-69.119-38.276,30.472-38.276,69.119-38.276S270.178,173.11,270.178,194.664Zm-87.7,29.357a35.646,35.646,0,0,1-4.088-57.971c-22.668,4.831-39.019,15.979-39.019,28.613,0,13.378,18.21,25.269,43.107,29.357Zm18.952-10.777a1.756,1.756,0,0,0-1.859-1.859,15.07,15.07,0,0,1-15.237-15.237,1.859,1.859,0,0,0-3.717,0A19.033,19.033,0,0,0,199.571,215.1a1.756,1.756,0,0,0,1.86-1.857Zm18.209-20.067a1.756,1.756,0,0,0,1.859-1.859,19.033,19.033,0,0,0-18.952-18.952,1.859,1.859,0,0,0,0,3.717,15.07,15.07,0,0,1,15.237,15.237,1.754,1.754,0,0,0,1.857,1.857Zm43.107,1.487c0-12.634-16.351-24.155-39.019-28.613a36.092,36.092,0,0,1,13.006,27.5,35.264,35.264,0,0,1-17.094,30.472c24.9-4.088,43.107-15.979,43.107-29.357Z" transform="translate(64.115 635.467)"/>
    <rect id="Rectangle_279" data-name="Rectangle 279" width="158.759" height="6.287" transform="translate(207.736 769.096) rotate(45)" fill="red"/>
  </g>
</svg>
