<svg xmlns="http://www.w3.org/2000/svg" xmlns:xlink="http://www.w3.org/1999/xlink" width="841.078" height="818.504" viewBox="0 0 841.078 818.504">
  <defs>
    <linearGradient id="linear-gradient" y1="0.5" x2="1" y2="0.5" gradientUnits="objectBoundingBox">
      <stop offset="0" stop-color="#444b8c"/>
      <stop offset="0.996" stop-color="#26264f"/>
    </linearGradient>
    <linearGradient id="linear-gradient-2" y1="0.5" x2="1" y2="0.5" gradientUnits="objectBoundingBox">
      <stop offset="0" stop-color="#ab316d"/>
      <stop offset="1" stop-color="#792d3d"/>
    </linearGradient>
    <linearGradient id="linear-gradient-3" x1="0.577" y1="-0.444" x2="0.159" y2="5.206" gradientUnits="objectBoundingBox">
      <stop offset="0" stop-color="#ff9085"/>
      <stop offset="1" stop-color="#fb6fbb"/>
    </linearGradient>
    <linearGradient id="linear-gradient-4" x1="0.635" y1="-0.687" x2="0.12" y2="3.299" gradientUnits="objectBoundingBox">
      <stop offset="0.004" stop-color="#f36f56"/>
      <stop offset="1" stop-color="#ffc444"/>
    </linearGradient>
    <linearGradient id="linear-gradient-5" x1="0.629" y1="-0.654" x2="0.153" y2="3.227" gradientUnits="objectBoundingBox">
      <stop offset="0" stop-color="#ffc444"/>
      <stop offset="0.996" stop-color="#f36f56"/>
    </linearGradient>
    <linearGradient id="linear-gradient-6" x1="0.535" y1="-0.085" x2="0.01" y2="4.261" xlink:href="#linear-gradient-5"/>
    <linearGradient id="linear-gradient-7" x1="-12.609" y1="-3.356" x2="-18.157" y2="-0.276" xlink:href="#linear-gradient-4"/>
    <linearGradient id="linear-gradient-8" x1="19.516" y1="1.702" x2="15.816" y2="5.265" xlink:href="#linear-gradient-4"/>
    <linearGradient id="linear-gradient-9" x1="30.413" y1="-40.759" x2="27.799" y2="-34.827" xlink:href="#linear-gradient-4"/>
    <clipPath id="clip-path">
      <path id="Path_342" data-name="Path 342" d="M1968.317,2704.88l45.382-1,44.12,26.956c1.1.67.713,2.641-.52,2.668l-40.665.893Z" transform="translate(-1968.317 -2703.884)" fill="none"/>
    </clipPath>
    <linearGradient id="linear-gradient-10" x1="1.07" y1="0.5" x2="2.07" y2="0.5" gradientUnits="objectBoundingBox">
      <stop offset="0" stop-color="#6b3976"/>
      <stop offset="1" stop-color="#311944"/>
    </linearGradient>
    <linearGradient id="linear-gradient-11" x1="1.403" y1="0.393" x2="2.479" y2="0.901" xlink:href="#linear-gradient-3"/>
    <linearGradient id="linear-gradient-12" x1="-11.465" y1="30.308" x2="-10.452" y2="30.308" xlink:href="#linear-gradient"/>
    <linearGradient id="linear-gradient-13" x1="-63.036" y1="-2.008" x2="-62.327" y2="-3.701" xlink:href="#linear-gradient-5"/>
    <linearGradient id="linear-gradient-14" x1="1.39" y1="-0.163" x2="1.798" y2="-0.911" xlink:href="#linear-gradient-10"/>
    <linearGradient id="linear-gradient-15" x1="-18.709" y1="12.497" x2="-17.711" y2="12.497" xlink:href="#linear-gradient"/>
    <linearGradient id="linear-gradient-16" x1="-65.857" y1="-9.385" x2="-65.12" y2="-11.112" xlink:href="#linear-gradient-5"/>
    <linearGradient id="linear-gradient-17" x1="-5.755" y1="0.323" x2="-5.299" y2="1.128" xlink:href="#linear-gradient-10"/>
    <linearGradient id="linear-gradient-18" x1="-0.705" y1="-1.924" x2="-0.65" y2="-3.698" xlink:href="#linear-gradient-5"/>
    <linearGradient id="linear-gradient-19" x1="-11.52" y1="3.528" x2="-12.089" y2="1.904" gradientUnits="objectBoundingBox">
      <stop offset="0" stop-color="#311944"/>
      <stop offset="1" stop-color="#6b3976"/>
    </linearGradient>
    <linearGradient id="linear-gradient-20" x1="-13.593" y1="3.01" x2="-13.629" y2="6.173" xlink:href="#linear-gradient-5"/>
    <linearGradient id="linear-gradient-21" x1="6.938" y1="0.5" x2="7.938" y2="0.5" xlink:href="#linear-gradient-10"/>
    <linearGradient id="linear-gradient-22" x1="11.517" y1="0.5" x2="12.517" y2="0.5" xlink:href="#linear-gradient-3"/>
    <linearGradient id="linear-gradient-23" x1="-0.515" y1="-0.371" x2="-0.781" y2="2.594" xlink:href="#linear-gradient"/>
    <linearGradient id="linear-gradient-24" x1="-15.065" y1="-9.218" x2="-15.874" y2="-6.813" xlink:href="#linear-gradient"/>
    <linearGradient id="linear-gradient-25" x1="-53.132" y1="0.263" x2="-52.275" y2="6.405" xlink:href="#linear-gradient-5"/>
    <linearGradient id="linear-gradient-26" x1="0.77" y1="0.5" x2="1.77" y2="0.5" xlink:href="#linear-gradient-3"/>
    <linearGradient id="linear-gradient-27" x1="0.94" y1="0.5" x2="1.94" y2="0.5" xlink:href="#linear-gradient-3"/>
    <linearGradient id="linear-gradient-28" x1="0.805" y1="0.5" x2="1.805" y2="0.5" xlink:href="#linear-gradient-10"/>
    <linearGradient id="linear-gradient-29" x1="26.402" y1="1.574" x2="36.567" y2="-2.774" xlink:href="#linear-gradient-5"/>
    <linearGradient id="linear-gradient-30" x1="0.17" y1="0.815" x2="1.039" y2="-0.017" gradientUnits="objectBoundingBox">
      <stop offset="0" stop-color="#b9005f"/>
      <stop offset="0.996" stop-color="#e30059"/>
    </linearGradient>
    <linearGradient id="linear-gradient-31" x1="0.163" y1="0.807" x2="1.05" y2="-0.003" xlink:href="#linear-gradient-30"/>
    <linearGradient id="linear-gradient-32" x1="0.177" y1="0.825" x2="1.028" y2="-0.033" xlink:href="#linear-gradient-30"/>
  </defs>
  <g id="Group_334" data-name="Group 334" transform="translate(-428.921 -455)">
    <path id="Path_315" data-name="Path 315" d="M1244.379,796.781c-16.315-107.979-29.413-182.6-88.328-223.493-99.376-68.973-210.359,43-351.129-32.136-69.31-36.993-71.908-79.883-130.607-85.576C570.462,445.5,485.414,570.82,478.043,581.567c-44.783,65.3-59.742,144.918-41.588,220.826,11.791,49.3,19.759,100.33,17.572,150.993-3.806,88.172-1.616,170.475,83.013,223.059,75.563,46.952,170.66,88.361,261.385,95.613,61.655,4.929,130.8-3.047,190.223-19.277C1291.487,1170.064,1266.811,945.246,1244.379,796.781Z" transform="translate(0 0)" fill="#f4f7fa"/>
    <g id="Group_279" data-name="Group 279" transform="translate(429.272 741.217)">
      <g id="Group_278" data-name="Group 278" transform="translate(0 0)">
        <path id="Path_316" data-name="Path 316" d="M1290.73,2824.8l-832.408-7.1V2838.7c0,5.7,3.631,10.543,8.548,11.406l235.38,41.341a33.048,33.048,0,0,0,8.445.388l570.99-47.135c5.1-.421,9.046-5.281,9.046-11.136Z" transform="translate(-450.003 -2407.178)" fill="#26264f"/>
        <g id="Group_277" data-name="Group 277">
          <path id="Path_317" data-name="Path 317" d="M968.762,1809.559l-521.723,38.406c-9.336.687-16.927-6.616-16.927-16.313V1443.141c0-9.7,7.591-17.559,16.927-17.559H968.762c7.691,0,13.91,7.106,13.91,15.873v351.208C982.672,1801.429,976.454,1808.993,968.762,1809.559Z" transform="translate(-430.113 -1425.582)" fill="#26264f"/>
          <path id="Path_319" data-name="Path 319" d="M1034.983,1838.733l-485.93,33.361c-7.6.521-13.771-5.472-13.771-13.389V1518.562c0-7.917,6.174-14.361,13.771-14.394l485.93-2.095c6.345-.027,11.477,5.8,11.477,13.006v309.809C1046.46,1832.1,1041.328,1838.3,1034.983,1838.733Z" transform="translate(-504.269 -1479.516)" fill="#ff7bac"/>
          <path id="Path_320" data-name="Path 320" d="M1434.075,1446a6.03,6.03,0,1,1-6-6.532A6.309,6.309,0,0,1,1434.075,1446Z" transform="translate(-1129.542 -1435.371)" fill="#fff"/>
          <path id="Path_321" data-name="Path 321" d="M475.247,1847.965l519.083-38.212,2.641-.194a14,14,0,0,0,9.189-4.65c-37.354-2.044-60.555-15.3-75.521-29-30.056-27.507-24.843-54.633-57.254-72.718-40.426-22.558-72.213,6.026-102.89-22.176-18.6-17.1-9.467-29.848-32.352-55.4-25.346-28.3-41.848-18.787-67.321-44.256-32.208-32.2-16.1-57.261-43.843-80.383-33.657-28.05-69.955-2.088-101.993-28.989-13.819-11.6-21.4-28.471-25.36-46.41H475.249c-9.336,0-16.927,7.862-16.927,17.559v388.512C458.322,1841.348,465.911,1848.65,475.247,1847.965Z" transform="translate(-450.003 -1425.581)" fill="#fff" opacity="0.48" style="mix-blend-mode: soft-light;isolation: isolate"/>
        </g>
        <path id="Path_322" data-name="Path 322" d="M1017.766,2720.183l-559.444,40.426,243.928,42.842a33.071,33.071,0,0,0,8.445.389l580.035-47.883-264.065-35.5A43.327,43.327,0,0,0,1017.766,2720.183Z" transform="translate(-450.003 -2338.336)" fill="url(#linear-gradient)"/>
        <path id="Path_323" data-name="Path 323" d="M735.141,2777.046l465.753-34.157,144.147,19.222L883.3,2798.624Z" transform="translate(-645.191 -2354.426)" fill="#26264f"/>
      </g>
    </g>
    <g id="Group_285" data-name="Group 285" transform="translate(491.695 579.737)">
      <g id="Group_283" data-name="Group 283" transform="translate(0 0)">
        <path id="Path_324" data-name="Path 324" d="M1273.363,926.67v378c0,10.136-6.631,10.887-15.1,11.31l-210.221,13.284-381.324,24.088-5.088.324c-10.943.555-19.85-8.388-19.84-19.969l.257-399.178-.01-32.639c.01-11.57,8.857-20.566,19.8-20.085l.711.034,141.921,6.148,453.8,19.683C1266.742,908.031,1273.363,916.545,1273.363,926.67Z" transform="translate(-641.791 -880.665)" fill="url(#linear-gradient-2)"/>
        <g id="Group_282" data-name="Group 282" transform="translate(7.811)">
          <g id="Group_281" data-name="Group 281">
            <g id="Group_280" data-name="Group 280">
              <path id="Path_325" data-name="Path 325" d="M1300.079,1080.6v347.367c0,10.16-6.622,18.733-15.1,19.155l-217.128,10.9-379.681,19.058a18,18,0,0,1-2.8-.074c-9.612-.97-17.1-9.356-17.089-19.943l.2-396.826v-3.078l169.567,6.283,453.733,16.843Z" transform="translate(-668.28 -1004.328)" fill="#fff"/>
              <path id="Path_326" data-name="Path 326" d="M1300.549,922.95v31.316l-8.26-.268L838.562,939.376l-169.617-5.471v-3.078l.114-32.7a19.95,19.95,0,0,1,12.6-18.967,18.491,18.491,0,0,1,7.322-1.153l133.838,5.809,462.637,20.094C1293.921,904.275,1300.549,912.8,1300.549,922.95Z" transform="translate(-668.75 -877.99)" fill="url(#linear-gradient-3)"/>
              <path id="Path_327" data-name="Path 327" d="M783.714,950.38c0,5.107-3.9,9.106-8.718,8.931s-8.739-4.471-8.736-9.6,3.924-9.122,8.748-8.93S783.717,945.273,783.714,950.38Z" transform="translate(-737.367 -922.263)" fill="#fff"/>
            </g>
          </g>
        </g>
      </g>
      <g id="Group_284" data-name="Group 284" transform="translate(62.843 101.801)">
        <path id="Path_328" data-name="Path 328" d="M1389.823,1340.005,854.9,1338.84V1223.2l534.927,13.93Z" transform="translate(-854.897 -1223.205)" fill="#d8dee8"/>
        <path id="Path_329" data-name="Path 329" d="M1083.823,1925.558,854.9,1935.19V1766.555l228.926-1.67Z" transform="translate(-854.897 -1605.148)" fill="#d8dee8"/>
        <path id="Path_330" data-name="Path 330" d="M2049.977,1907.386l-258.835,10.877v-159.02l258.835-1.876Z" transform="translate(-1515.051 -1599.847)" fill="#d8dee8"/>
      </g>
      <path id="Path_331" data-name="Path 331" d="M1049.282,1331.691l-379.737,19.057a18.305,18.305,0,0,1-2.826-.074l-5.088.324c-10.943.555-19.85-8.388-19.84-19.969l.257-399.178-.01-32.639c.01-11.57,8.857-20.566,19.8-20.085l.711.034a18.389,18.389,0,0,1,7.3-1.153l133.827,5.809c.277.493.536.987.793,1.492a134.254,134.254,0,0,1,14.979,51.8c.06.751.119,1.5.158,2.266,1.528,22.626-2,49.464-14.572,80.521-34.716,85.851,3.9,171.155,56.319,205.065q2.429,1.578,4.9,2.987c16.118,9.3,33.337,13.739,50,11.9,30.327-3.342,60.869,3.656,85.352,20.289q4.7,3.2,9.086,6.852c17.331,14.482,30.7,34.45,37.355,59.594Q1048.717,1329.1,1049.282,1331.691Z" transform="translate(-641.791 -877.99)" fill="#d8dee8" opacity="0.3" style="mix-blend-mode: multiply;isolation: isolate"/>
    </g>
    <g id="Group_289" data-name="Group 289" transform="translate(570.833 722.235)">
      <g id="Group_287" data-name="Group 287" transform="translate(0 61.573)">
        <path id="Path_332" data-name="Path 332" d="M1088.925,1580.015a5.008,5.008,0,0,0-4.973-.9l-114.275,41.645a5.008,5.008,0,0,0-1.491,8.552l19.256,16.04c-.033.025-.067.047-.1.072-.646.506-1.283,1.038-1.907,1.583q-17.22,15.12-34.435,30.245-19.576,17.2-39.145,34.415a5.008,5.008,0,0,0,.092,7.6q32.892,27.614,65.544,55.02a4.944,4.944,0,0,0,.555.4l0,0s7.325,6.483,14.65-3.089c-2.028-.534-4.184-1.191-5.713-1.675q9.836-15.575,19.708-31.12,15.448-24.31,30.991-48.537c.436-.67.839-1.354,1.23-2.043l20.3,16.914a3.559,3.559,0,0,0,.465.339,5,5,0,0,0,1.276.6c1.568.544,4.231.869,8.141-.571,6.846-2.522,6.835-5.6,7.093-6.9.148-.747-4.109-1.426-7.764-1.87l22.154-111.946A5.008,5.008,0,0,0,1088.925,1580.015Z" transform="translate(-910.157 -1576.216)" fill="url(#linear-gradient-4)"/>
        <g id="Group_286" data-name="Group 286" transform="translate(8.648)">
          <path id="Path_333" data-name="Path 333" d="M1065.419,1765.36c-11.382-9.483-32.666-7.17-48.75,4.875-.646.506-1.284,1.038-1.907,1.583q-17.22,15.12-34.434,30.245-19.576,17.2-39.145,34.415a5.009,5.009,0,0,0,.092,7.6q32.893,27.614,65.544,55.02a5.017,5.017,0,0,0,7.459-1.159q10.844-17.182,21.736-34.323,15.448-24.31,30.991-48.537c.448-.689.864-1.393,1.265-2.1C1077.674,1795.491,1076.747,1774.78,1065.419,1765.36Z" transform="translate(-939.482 -1703.623)" fill="url(#linear-gradient-5)"/>
          <path id="Path_334" data-name="Path 334" d="M1252.693,1571.217a5.008,5.008,0,0,0-4.973-.9l-114.275,41.645a5.008,5.008,0,0,0-1.49,8.552l91.028,75.826a5.008,5.008,0,0,0,8.117-2.875l23.247-117.471A5.008,5.008,0,0,0,1252.693,1571.217Z" transform="translate(-1073.925 -1570.012)" fill="url(#linear-gradient-6)"/>
        </g>
      </g>
      <g id="Group_288" data-name="Group 288" transform="translate(148.814)">
        <path id="Path_335" data-name="Path 335" d="M1435.471,1384.208c2.477,14.342,2.9,26.288,1.028,26.977-1.893.624-9-8.988-15.982-21.758-6.978-12.753-7.743-25.672-1.356-27.92C1425.559,1359.293,1433,1369.883,1435.471,1384.208Z" transform="translate(-1414.795 -1361.214)" fill="url(#linear-gradient-7)"/>
        <path id="Path_336" data-name="Path 336" d="M1606.882,1419.433c-10.551,10.026-20.253,17.008-21.863,15.837-1.57-1.228,2.476-12.476,9.219-25.374s17.048-20.7,22.464-16.634C1622.1,1397.353,1617.421,1409.42,1606.882,1419.433Z" transform="translate(-1534.583 -1383.05)" fill="url(#linear-gradient-8)"/>
        <path id="Path_337" data-name="Path 337" d="M1611.064,1627.466c-12.127-8.048-21.1-15.948-20.316-17.779.846-1.8,12.714-.37,26.791,3.324,14.063,3.685,23.979,12,21.228,18.187C1635.982,1637.37,1623.176,1635.5,1611.064,1627.466Z" transform="translate(-1538.827 -1535.867)" fill="url(#linear-gradient-9)"/>
      </g>
    </g>
    <g id="Group_312" data-name="Group 312" transform="translate(882.876 727.001)">
      <g id="Group_290" data-name="Group 290" transform="translate(104.101 73.432)">
        <path id="Path_338" data-name="Path 338" d="M2327.739,1730.18c3.1,5.176,8.12,11.653,14.5,11.864,12.426.41,22.034-23.245,25.3-31.284,14.215-35,6.627-62.231,21.472-75.362a37.382,37.382,0,0,1,18.172-8.749c.67-.084,7.344-.8,10.057.577,36.7,18.638-49.532,242.948-95.9,112.209C2329.068,1735.768,2326.226,1732.865,2327.739,1730.18Z" transform="translate(-2321.331 -1626.389)" fill="#606eb3"/>
        <path id="Path_339" data-name="Path 339" d="M2392.666,1732.866c.983-10.807-3.93-22.6,0-32.422,2.948-6.877,13.755-10.807,15.72-20.632,1.88-15.035-5.221-29.172-2.406-44.128.1-.094.194-.194.3-.286a37.383,37.383,0,0,1,18.172-8.749c.669-.084,7.344-.8,10.057.577,34.864,17.707-41.227,221.048-88.678,129.191,11.2-7.547,25.564-10.167,37.995-15.692C2386.771,1738.761,2391.684,1736.8,2392.666,1732.866Z" transform="translate(-2338.605 -1626.389)" fill="#606eb3"/>
      </g>
      <g id="Group_296" data-name="Group 296" transform="translate(0 259.798)">
        <path id="Path_340" data-name="Path 340" d="M2038.138,2392.277a4.438,4.438,0,0,1-4.148-6l40.457-107.387a31.708,31.708,0,0,1,32.8-20.365l44.429,4.422a4.434,4.434,0,0,1-.878,8.824l-44.429-4.422a22.865,22.865,0,0,0-23.624,14.667L2042.288,2389.4A4.436,4.436,0,0,1,2038.138,2392.277Z" transform="translate(-2014.422 -2258.367)" fill="#a2a7ae"/>
        <g id="Group_295" data-name="Group 295" transform="translate(0 131.379)">
          <g id="Group_294" data-name="Group 294">
            <g id="Group_293" data-name="Group 293" style="isolation: isolate">
              <g id="Group_292" data-name="Group 292" clip-path="url(#clip-path)">
                <g id="Group_291" data-name="Group 291" transform="translate(4.177 0.108)">
                  <path id="Path_341" data-name="Path 341" d="M2072.006,2733.662l-43.719-26.71a17.738,17.738,0,0,0-9.681-2.7l-34.88.766c-1.335.029-1.725,2.376-.517,3.114l38.817,23.715a17.738,17.738,0,0,0,9.681,2.7l40.3-.884Z" transform="translate(-1982.483 -2704.249)" fill="#a2a7ae"/>
                </g>
              </g>
            </g>
          </g>
        </g>
      </g>
      <g id="Group_298" data-name="Group 298" transform="translate(117.256 132.976)">
        <path id="Path_343" data-name="Path 343" d="M2994.522,1980.013a4.443,4.443,0,0,1-4.376-5.182l16.485-96.513c1.488-8.706,4.754-14.818,9.2-17.209a8.876,8.876,0,0,1,7.935-.329l16.136,7.1a4.435,4.435,0,0,1-3.572,8.118l-16.135-7.1c-.846.144-3.48,3.07-4.821,10.912l-16.485,96.514A4.436,4.436,0,0,1,2994.522,1980.013Z" transform="translate(-2806.028 -1850.653)" fill="url(#linear-gradient-10)"/>
        <g id="Group_297" data-name="Group 297">
          <path id="Path_344" data-name="Path 344" d="M2372.555,2000.554c31.988,9.751,73.246,9.033,100.69,10.716s30.255.839,45.515-9.444,19.913-20.03,24.536-38.216c9.913-39,15.09-83.376,21.093-124.012.932-6.308,26.4-9.656-.366-10.659-3.918-.147-64.414,4.221-66.655,4.377-17.563,1.222-14.988,3.735-16.153,10.315-6.547,36.974-12.213,81.863-18.759,116.451-4.083,21.578-13.426,29.813-32.1,32.576-17.759,2.629-33.676-5.616-50.86-10.234a10.743,10.743,0,0,0-12.562,6.551C2365.111,1993.873,2365.167,1998.215,2372.555,2000.554Z" transform="translate(-2365.94 -1828.749)" fill="url(#linear-gradient-11)"/>
          <path id="Path_345" data-name="Path 345" d="M2372.555,2000.554c31.988,9.751,83.259,13.709,110.7,15.392s22.364-1.716,37.625-12,17.792-22.151,22.414-40.337c9.913-39,15.09-83.376,21.093-124.012.932-6.308,26.4-9.656-.366-10.659-3.918-.147-64.414,4.221-66.655,4.377-17.563,1.222-14.988,3.735-16.153,10.315-6.547,36.974-12.213,81.863-18.759,116.451-4.083,21.578-13.426,29.813-32.1,32.576-17.759,2.629-33.676-5.616-50.86-10.234a10.743,10.743,0,0,0-12.562,6.551C2365.111,1993.873,2365.167,1998.215,2372.555,2000.554Z" transform="translate(-2365.94 -1828.749)" fill="#97a6b7"/>
          <path id="Path_346" data-name="Path 346" d="M2725.558,2013.641c5.514.686,12.908,1.865,18.655,1.86,14.835-.013,26.963-3.643,38.654-14.117s19.819-20.175,23.911-38.426c8.775-39.14,15.33-84.181,20.641-124.607.945-7.193-2.626-9.816-8.1-10.036s-10.021,2.806-11.1,9.81c-6.038,39.361-11.625,85.581-20.605,123.024-5.6,23.359-20.529,32.929-40.947,35.071-5.912.62-13.425-1.995-19.156-1.676s-8.7,3.688-9.2,8.737S2720.043,2012.955,2725.558,2013.641Z" transform="translate(-2614.354 -1828.304)" fill="#97a6b7"/>
          <path id="Path_347" data-name="Path 347" d="M2842.007,1990.268c12.862-5.442,15.831-20.284,17.81-33.146,2.474-17.81-5.442-35.62.989-52.44,1.979-5.442,8.9-9.895,10.389-15.336,3.737-18.686-5.765-46.43,6.587-61.006.071,0,.14,0,.212,0,5.473.22,9.044,2.843,8.1,10.036-5.311,40.426-11.867,85.467-20.642,124.607-4.092,18.252-12.219,27.952-23.91,38.426s-23.82,14.1-38.654,14.117c-.465,0-.944-.01-1.428-.024.158-.166.32-.327.476-.5C2813.313,2002.636,2826.67,1996.2,2842.007,1990.268Z" transform="translate(-2673.028 -1828.328)" fill="#a2a7ae" opacity="0.3" style="mix-blend-mode: multiply;isolation: isolate"/>
        </g>
      </g>
      <path id="Path_348" data-name="Path 348" d="M2650.187,1618.039c-9.813-2.759-31.886-5.483-49.5-6.478-25.12-1.42-37.679-2.13-46.58,3.852-20.556,13.816-4.642,45.7-13.057,124.751-3.576,33.6-5.189,31.423,2.871,43.381,16.375,24.294,62.372,26.285,83.443,5.222,11.136-11.133,27.349,9.861,27.616-2.842C2656.04,1735.784,2681.365,1691.189,2650.187,1618.039Z" transform="translate(-2370.083 -1541.808)" fill="#fff"/>
      <g id="Group_299" data-name="Group 299" transform="translate(12.959 236.024)">
        <path id="Path_349" data-name="Path 349" d="M2039.415,2692.188c1.886,2.356,2.158,5.21-.478,6.989s-6.476-.88-9.849-1.527c-3.614-.693-8.741-.561-12.457-2.52-1.5-.792-4.869-1.8-4.3-4.292.4-1.749,5.505-1.458,7.154-1.608,2.339-.214,7.222-1.019,9.012-.862C2032.989,2688.762,2036.923,2689.076,2039.415,2692.188Z" transform="translate(-2012.263 -2537.777)" fill="url(#linear-gradient-12)"/>
        <path id="Path_350" data-name="Path 350" d="M2083.578,2661.537c-1.842,3.177-3.962,6.175-5.834,9.334,1.732,2.142,3.914,2.8,6.607,2.834,2.322-3.1,4.954-5.926,7.435-8.894C2089.044,2663.736,2086.3,2662.665,2083.578,2661.537Z" transform="translate(-2058.434 -2518.872)" fill="url(#linear-gradient-13)"/>
        <path id="Path_351" data-name="Path 351" d="M2290.626,2208.756c19.448,33.3-8.132,12.2-31.774,10.8-24.9-1.471-87.82-5.386-109,23.315-15.773,21.376-13.23,55.385-38.6,75.523a81.693,81.693,0,0,1-16.319,9.768c-5.49-2.67-9.788-6.991-15.786-8.579,2.469-37.786,8.421-61.558,29.163-95.895,5.015-8.3,26.572-31.5,38.109-37.633C2177.609,2169.484,2272.689,2178.044,2290.626,2208.756Z" transform="translate(-2059.424 -2177.75)" fill="url(#linear-gradient-14)"/>
      </g>
      <g id="Group_300" data-name="Group 300" transform="translate(40.287 225.392)">
        <path id="Path_352" data-name="Path 352" d="M2133.889,2741.97a5.007,5.007,0,0,1-.953,7.586c-2.657,2.009-6.923-.182-10.5-.6-3.83-.445-9.069.256-13.044-1.506-1.606-.712-5-1.471-4.387-4.1.429-1.851,5.769-1.993,7.538-2.333,2.511-.482,7.822-1.719,9.708-1.757C2126.99,2739.163,2131.191,2738.619,2133.889,2741.97Z" transform="translate(-2104.934 -2562.978)" fill="url(#linear-gradient-15)"/>
        <path id="Path_353" data-name="Path 353" d="M2184.405,2705.574c-2.207,3.861-4.759,7.5-6.956,11.373,1.756,2.182,4.192,2.568,6.878,2.341,2.86-3.7,5.88-7.265,8.7-10.99C2190.141,2707.423,2187.264,2706.537,2184.405,2705.574Z" transform="translate(-2156.065 -2539.29)" fill="url(#linear-gradient-16)"/>
        <path id="Path_354" data-name="Path 354" d="M2393.708,2144.741c16.823,12.248,9.712,25.106,8.233,38.377-3.32,29.788-55.1,37.824-73.31,38.576-22.157.914-52.917-14.987-66.01-9.02-20.345,9.271-19.535,71.18-45.388,92.954-4.441,3.741-10.68,9.026-16.289,12.119a138.349,138.349,0,0,1-16.247-9.083c4.17-17.97,9.018-39.317,13.952-56.2,6.965-23.831,9.651-39.723,22.623-62.4,6.248-10.921,18.512-25.859,33.552-33.461,9.379-4.741,40.388-4.6,49.278-5.878C2324.115,2147.845,2382.07,2136.268,2393.708,2144.741Z" transform="translate(-2161.175 -2141.693)" fill="url(#linear-gradient-17)"/>
      </g>
      <g id="Group_302" data-name="Group 302" transform="translate(194.659)">
        <path id="Path_355" data-name="Path 355" d="M2666.928,1466.408a130.2,130.2,0,0,0,2.326,26.032c1.347,6.934,2.318,8.725,3.556,10.179,1.865,2.188,4.691,4.023,20.658,7.983,8.689,2.154,9.807,2.1,10,2.958.936,4.206-22.756,18.542-47.235,15.087-14.981-2.114-28.611-10.661-27.775-15.15.843-4.517,15.807-2.093,20.267-10.264,3.1-5.685-.376-13.755-4.487-20.439C2648.22,1475.332,2662.947,1473.868,2666.928,1466.408Z" transform="translate(-2628.42 -1440.153)" fill="url(#linear-gradient-18)"/>
        <g id="Group_301" data-name="Group 301" transform="translate(0.714)">
          <path id="Path_356" data-name="Path 356" d="M2631.25,1399.16c1.127-3.383,4.007-3.617,5.055-7.7,1.221-4.767-2.032-7.044-.893-9.873,2.025-5.033,15.088-4.689,23.127-3.362,8.928,1.475,18.79,3.1,23.881,11.515,4.935,8.153,3.967,20.334-1.327,23.664-2.89,1.818-5.274-.132-9.925,1.2-5.938,1.7-9.668,7.057-11.949,11.561a39.416,39.416,0,0,0-1.852-6.594c-1.814-4.78-2.511-7.246-4.163-7.846-3.249-1.181-5.649,5.1-10.43,5.118C2636.451,1416.857,2629.007,1405.891,2631.25,1399.16Z" transform="translate(-2630.842 -1377.374)" fill="url(#linear-gradient-19)"/>
          <path id="Path_357" data-name="Path 357" d="M2687.4,1468.078s-6.793,10-19.265,8.568c-11.166-1.283-11.566-26.485-4.148-31.463,2.475-1.66,7.292-2.163,11.126-.882,2.264.757,2.995,1.75,6.718,2.913,3.435,1.075,4.436.738,5.443,1.673,1.259,1.171,2.087,3.928-.469,11.164,2.244-2.058,4.85-2.762,6.626-1.814a3.839,3.839,0,0,1,1.42,1.527C2696.272,1462.711,2693.47,1466.246,2687.4,1468.078Z" transform="translate(-2650.685 -1424.055)" fill="url(#linear-gradient-20)"/>
        </g>
      </g>
      <g id="Group_303" data-name="Group 303" transform="translate(77.104 273.611)">
        <path id="Path_358" data-name="Path 358" d="M2495.091,2586.552a4.492,4.492,0,0,1-.554-.035l-177.757-22.193a4.434,4.434,0,0,1,1.1-8.8l177.757,22.194a4.434,4.434,0,0,1-.544,8.834Z" transform="translate(-2288.385 -2481.684)" fill="#a2a7ae"/>
        <path id="Path_359" data-name="Path 359" d="M2234.218,2453.733a4.438,4.438,0,0,1-4.148-6l45.186-119.94a34.939,34.939,0,0,1,36.1-22.413l46.324,4.611a4.434,4.434,0,1,1-.878,8.824l-46.324-4.612a26.046,26.046,0,0,0-26.922,16.715l-45.186,119.94A4.436,4.436,0,0,1,2234.218,2453.733Z" transform="translate(-2229.783 -2305.21)" fill="#a2a7ae"/>
        <path id="Path_360" data-name="Path 360" d="M2438.273,2651.421a4.438,4.438,0,0,1-4.263-5.662l17.122-59.495a4.434,4.434,0,0,1,8.523,2.453l-17.122,59.495A4.436,4.436,0,0,1,2438.273,2651.421Z" transform="translate(-2373.662 -2501.122)" fill="#a2a7ae"/>
      </g>
      <g id="Group_305" data-name="Group 305" transform="translate(110.883 374.616)">
        <g id="Group_304" data-name="Group 304">
          <path id="Path_361" data-name="Path 361" d="M2344.33,2678.553a30.83,30.83,0,1,1,30.83,30.83A30.865,30.865,0,0,1,2344.33,2678.553Zm17.962,0a12.868,12.868,0,1,0,12.868-12.867A12.883,12.883,0,0,0,2362.292,2678.553Z" transform="translate(-2344.33 -2647.723)" fill="url(#linear-gradient-21)"/>
        </g>
        <circle id="Ellipse_4" data-name="Ellipse 4" cx="18.333" cy="18.333" r="18.333" transform="translate(15.254 11.404)" fill="url(#linear-gradient-22)"/>
      </g>
      <g id="Group_306" data-name="Group 306" transform="translate(94.804 141.563)">
        <path id="Path_362" data-name="Path 362" d="M2293.647,1857.869c22.655.486,46.395,1.288,69.174,2.028,1.91.062,2.678.609,3.283,2.414,9.741,29.04,18.278,59.317,27.318,88.467.957,3.086-.475,4.763-3.564,4.628-21.794-.952-44.519-1.277-66.436-1.652-1.844-.032-2.644-.564-3.248-2.411-9.634-29.453-20.056-59.5-30.012-88.729C2289.11,1859.527,2290.413,1857.8,2293.647,1857.869Z" transform="translate(-2289.805 -1857.737)" fill="url(#linear-gradient-23)"/>
        <path id="Path_363" data-name="Path 363" d="M2343.3,1932.739c-3.1-13.969,3.628-26.511-4.016-38.51-7.863-12.344-22.7-10.93-32.946-21.1-3.261-3.238-7.177-10.3-8.3-15.487-1.336.024-3.368-.363-4.493-.147-2.469.475-4.513,1.663-3.444,4.764,10.127,29.357,20.385,59.267,30.084,88.789.608,1.852,1.4,2.312,3.231,2.369,11.034.342,22.579.294,33.671.469C2350.92,1949.069,2344.772,1939.4,2343.3,1932.739Z" transform="translate(-2289.808 -1857.426)" opacity="0.1" fill="url(#linear-gradient-24)" style="mix-blend-mode: multiply;isolation: isolate"/>
      </g>
      <g id="Group_308" data-name="Group 308" transform="translate(149.416 74.085)">
        <g id="Group_307" data-name="Group 307" transform="translate(28.477)">
          <path id="Path_364" data-name="Path 364" d="M2669.484,1806.5c12.925-6.9,10.473-26.907,21.638-65.72,4.506-15.666,7-27.458,7.391-41.892a138.889,138.889,0,0,0-1.455-22.935c-.52-3.833-5.413-37.405-23.282-45.2a27.748,27.748,0,0,0-10.029-2.146c-9.758.052-16.832,6.286-20.345,9.382s-5.667,5.833-9.558,11.621c-3.52,5.238-7.9,11.281-9.951,21.292-3.355,16.34,1.7,37,3.846,55.387.976,8.377,9.669,29.7,4.275,38.108-4.757,7.417-42.891-14.03-49.605-18a11.161,11.161,0,0,0-10.576,7.114c-3,7.514,19.48,49.429,59.922,55.364C2639.654,1810.025,2658.72,1812.244,2669.484,1806.5Z" transform="translate(-2571.567 -1628.602)" fill="#606eb3"/>
        </g>
        <path id="Path_365" data-name="Path 365" d="M2510.913,1987.085c-8.293-8.559-19.5-20.94-31.468-22.706s3.643,22.58,7.008,24.548,8.491,3.646,11.2,3.675,1.348-.136,3.3-.111c1.257.829,2.812,1.621,4.191,2.446C2509.056,1993.542,2511.171,1991.608,2510.913,1987.085Z" transform="translate(-2474.998 -1865.297)" fill="url(#linear-gradient-25)"/>
      </g>
      <g id="Group_311" data-name="Group 311" transform="translate(183.527 230.316)">
        <g id="Group_309" data-name="Group 309">
          <path id="Path_366" data-name="Path 366" d="M2618.836,2346.478c-18.162-20.8-28.164-48.4-28.164-77.714s10-56.912,28.164-77.714c18.386-21.059,42.908-32.656,69.048-32.656s50.661,11.6,69.048,32.656c18.162,20.8,28.164,48.4,28.164,77.714s-10,56.912-28.164,77.714c-18.387,21.059-42.909,32.657-69.048,32.657S2637.223,2367.537,2618.836,2346.478Zm-14.807-77.714c0,53.493,37.617,97.013,83.855,97.013s83.855-43.52,83.855-97.013-37.617-97.013-83.855-97.013S2604.03,2215.271,2604.03,2268.764Z" transform="translate(-2590.672 -2158.394)" fill="url(#linear-gradient-26)"/>
        </g>
        <path id="Path_367" data-name="Path 367" d="M2966.378,2445.153c-.081,0-.163,0-.246-.01l-30.23-2.509a15.571,15.571,0,0,1-11.254-5.9c-3.292-4.177-4.553-10.054-3.552-16.549l14.971-97.133a2.938,2.938,0,1,1,5.807.894l-14.97,97.133c-.75,4.867.088,9.134,2.36,12.017a9.837,9.837,0,0,0,7.125,3.68l30.23,2.509a2.938,2.938,0,0,1-.24,5.866Z" transform="translate(-2823.42 -2272.741)" fill="#fc77ae"/>
        <ellipse id="Ellipse_5" data-name="Ellipse 5" cx="73.947" cy="86.782" rx="73.947" ry="86.782" transform="translate(28.618 22.394)" fill="url(#linear-gradient-27)"/>
        <ellipse id="Ellipse_6" data-name="Ellipse 6" cx="11.171" cy="14.801" rx="11.171" ry="14.801" transform="translate(96.446 92.801)" fill="#fff" opacity="0.3"/>
        <g id="Group_310" data-name="Group 310" transform="translate(11.778 8.923)">
          <path id="Path_368" data-name="Path 368" d="M2656.213,2359.5c-16.508-18.892-25.6-43.933-25.6-70.511s9.091-51.619,25.6-70.511c16.805-19.232,39.249-29.823,63.2-29.823s46.39,10.592,63.2,29.823c16.508,18.892,25.6,43.934,25.6,70.511s-9.092,51.619-25.6,70.511c-16.805,19.233-39.248,29.824-63.2,29.824S2673.018,2378.732,2656.213,2359.5Zm-8.843-71.752c0,46.88,32.809,85.02,73.136,85.02s73.136-38.14,73.136-85.02-32.809-85.02-73.136-85.02S2647.37,2240.868,2647.37,2287.748Z" transform="translate(-2630.613 -2188.654)" fill="url(#linear-gradient-28)"/>
        </g>
      </g>
      <path id="Path_369" data-name="Path 369" d="M2316.488,1966.677c2.407-.242,4.128-5.584,4.325-9.535.653-13.133-14.884-24.231-17.485-22.453-.952.651.05,3.834,2.055,10.2C2307.769,1952.465,2312.376,1967.091,2316.488,1966.677Z" transform="translate(-2204.279 -1770.209)" fill="url(#linear-gradient-29)"/>
    </g>
    <g id="Group_333" data-name="Group 333" transform="translate(440.819 511.092)">
      <g id="Group_318" data-name="Group 318" transform="translate(297.845 8.66)">
        <g id="Group_316" data-name="Group 316">
          <g id="Group_313" data-name="Group 313" transform="translate(0 3.978)">
            <path id="Path_370" data-name="Path 370" d="M1479.282,779.353c0-51.748,46.767-92.575,101.87-91.252,52.438,1.259,93.122,40.584,93.122,87.888s-40.684,88.033-93.122,91.1C1526.049,870.314,1479.282,831.1,1479.282,779.353Z" transform="translate(-1479.282 -688.07)" fill="#26264f"/>
          </g>
          <g id="Group_314" data-name="Group 314" transform="translate(6.095)">
            <path id="Path_371" data-name="Path 371" d="M1499.949,765.762c0-51.692,45.327-92.474,98.761-91.151,50.88,1.26,90.375,40.583,90.375,87.885s-39.495,87.99-90.375,91.007C1545.276,856.671,1499.949,817.454,1499.949,765.762Z" transform="translate(-1499.949 -674.58)" fill="url(#linear-gradient-30)"/>
          </g>
          <g id="Group_315" data-name="Group 315" transform="translate(21.696 14.309)" opacity="0.5" style="mix-blend-mode: soft-light;isolation: isolate">
            <path id="Path_372" data-name="Path 372" d="M1552.854,799.708c0-43.308,37.92-77.576,82.75-76.583,42.817.949,76.141,33.99,76.141,73.839s-33.324,74.042-76.141,76.469C1590.774,875.974,1552.854,843.016,1552.854,799.708Z" transform="translate(-1552.854 -723.104)" fill="#fff"/>
          </g>
          <path id="Path_373" data-name="Path 373" d="M1646.03,729.616c42.865.9,76.225,33.919,76.225,73.79a72.016,72.016,0,0,1-5.322,27.083,72.4,72.4,0,0,0,8.3-33.525c0-39.849-33.324-72.891-76.141-73.84-34.511-.763-64.921,19.388-77.108,48.557C1585.783,746.084,1614.162,728.949,1646.03,729.616Z" transform="translate(-1544.648 -708.793)" fill="#fff" opacity="0.5" style="mix-blend-mode: soft-light;isolation: isolate"/>
        </g>
        <g id="Group_317" data-name="Group 317" transform="translate(41.763 62.465)">
          <path id="Path_374" data-name="Path 374" d="M1797.19,953.447a13.264,13.264,0,0,1-13.532,13.111,13.521,13.521,0,0,1-13.6-13.327,13.264,13.264,0,0,1,13.6-13.11A13.523,13.523,0,0,1,1797.19,953.447Z" transform="translate(-1726.075 -924.279)" fill="#fff"/>
          <path id="Path_375" data-name="Path 375" d="M1678.489,886.411c-24.074-.319-45.395,11.079-57.584,28.594,12.189,17.709,33.509,29.448,57.584,29.513,23.865.065,44.657-11.371,56.4-28.6C1723.146,898.495,1702.354,886.728,1678.489,886.411Zm0,52.231c-13.168-.05-23.889-10.512-23.889-23.368s10.721-23.148,23.889-22.987c13.1.16,23.683,10.621,23.683,23.367S1691.594,938.692,1678.489,938.642Z" transform="translate(-1620.905 -886.405)" fill="#fff"/>
          <path id="Path_376" data-name="Path 376" d="M1797.19,953.447a13.264,13.264,0,0,1-13.532,13.111,13.521,13.521,0,0,1-13.6-13.327,13.264,13.264,0,0,1,13.6-13.11A13.523,13.523,0,0,1,1797.19,953.447Z" transform="translate(-1726.075 -924.279)" fill="#fff"/>
        </g>
      </g>
      <g id="Group_325" data-name="Group 325" transform="translate(563.493 13.524)">
        <g id="Group_322" data-name="Group 322">
          <g id="Group_319" data-name="Group 319" transform="translate(0 3.795)">
            <path id="Path_377" data-name="Path 377" d="M2380.115,790.976c0-49.294,42.453-88.223,92.516-87.006,47.685,1.158,84.711,38.647,84.711,83.783s-37.026,83.971-84.711,86.864C2422.568,877.654,2380.115,840.269,2380.115,790.976Z" transform="translate(-2380.115 -703.942)" fill="#26264f"/>
          </g>
          <g id="Group_320" data-name="Group 320" transform="translate(5.53)">
            <path id="Path_378" data-name="Path 378" d="M2398.869,778.014c0-49.242,41.149-88.131,89.7-86.916a83.923,83.923,0,0,1,82.214,83.78c0,45.133-35.944,83.932-82.214,86.779C2440.018,864.645,2398.869,827.257,2398.869,778.014Z" transform="translate(-2398.869 -691.071)" fill="url(#linear-gradient-31)"/>
          </g>
          <g id="Group_321" data-name="Group 321" transform="translate(19.69 13.642)" opacity="0.5" style="mix-blend-mode: soft-light;isolation: isolate">
            <path id="Path_379" data-name="Path 379" d="M2446.886,810.377c0-41.262,34.432-73.938,75.167-73.024a70.5,70.5,0,0,1,69.256,70.39c0,38.017-30.322,70.622-69.256,72.917C2481.318,883.059,2446.886,851.638,2446.886,810.377Z" transform="translate(-2446.886 -737.333)" fill="#fff"/>
          </g>
          <path id="Path_380" data-name="Path 380" d="M2531.514,743.543a70.452,70.452,0,0,1,69.33,70.344A71.594,71.594,0,0,1,2596,839.724a71.744,71.744,0,0,0,7.554-31.983,70.5,70.5,0,0,0-69.256-70.39,73.773,73.773,0,0,0-70.046,46.32A73.994,73.994,0,0,1,2531.514,743.543Z" transform="translate(-2439.441 -723.69)" fill="#fff" opacity="0.5" style="mix-blend-mode: soft-light;isolation: isolate"/>
        </g>
        <g id="Group_324" data-name="Group 324" transform="translate(61.823 37.511)">
          <g id="Group_323" data-name="Group 323" transform="translate(58.211 39.613)">
            <path id="Path_381" data-name="Path 381" d="M2813.158,1015.471a2.825,2.825,0,0,1-2.8,2.872l-13.1-.076a2.878,2.878,0,0,1-2.816-2.914h0a2.834,2.834,0,0,1,2.816-2.879l13.1.09a2.868,2.868,0,0,1,2.8,2.907Z" transform="translate(-2792.293 -994.818)" fill="#fff"/>
            <path id="Path_382" data-name="Path 382" d="M2805.086,954.26a3.023,3.023,0,0,1-1.549,3.906l-5.688,2.943a2.9,2.9,0,0,1-4-1.039l-.031-.063a3.228,3.228,0,0,1,1.447-4.131l5.694-2.939a3.084,3.084,0,0,1,4.1,1.261Z" transform="translate(-2791.656 -952.601)" fill="#fff"/>
            <path id="Path_383" data-name="Path 383" d="M2798.72,1071.827a3.054,3.054,0,0,0-1.55-3.926l-5.692-3.015a2.881,2.881,0,0,0-4.007.99l-.031.063a3.259,3.259,0,0,0,1.448,4.151l5.7,3.011a3.061,3.061,0,0,0,4.1-1.211Z" transform="translate(-2787.162 -1031.487)" fill="#fff"/>
          </g>
          <path id="Path_384" data-name="Path 384" d="M2618.049,818.277c-15.06-.267-27.427,11.7-28.235,26.713l-.051.1.014.421.021.315c-.01.309-.024.63-.024.942a29.679,29.679,0,0,0,.431,5l-.042.457,2.994,43.216v.019a24.667,24.667,0,0,0,.382,3.612,23.752,23.752,0,0,0,1.006,4.042c2.621,8.2,9.338,14.019,17.167,14.01a16.037,16.037,0,0,0,10.837-4.287,21.183,21.183,0,0,0,6.566-10.725,25.41,25.41,0,0,0,.593-5.273,22.834,22.834,0,0,1,.4-3.935c1.091-5.893,4.205-11.451,6.436-16.85,3.789-9.171,9.481-18.287,9.481-28.587C2646.023,831.683,2633.535,818.551,2618.049,818.277Zm11.663,35.51a2.613,2.613,0,0,1-3.073-2.039c-.1-.463-2.625-11.336-12.865-11.475a9.072,9.072,0,0,0-8.676,5.893c-2.054,4.752-1.351,10.853,1.634,14.185.5.557,1.051,1.159,1.64,1.8,5.6,6.1,14.052,15.3,13.245,24.973-.389,4.663-2.891,8.788-7.44,12.263a2.547,2.547,0,0,1-1.557.527,2.581,2.581,0,0,1-2.08-1.066,2.686,2.686,0,0,1,.52-3.712c3.368-2.568,5.132-5.343,5.394-8.486.611-7.318-6.89-15.476-11.867-20.887-.605-.658-1.173-1.276-1.687-1.848-4.378-4.881-5.464-13.273-2.579-19.941,2.513-5.811,7.42-9.09,13.451-9,11.55.168,16.76,10.339,17.9,15.691A2.611,2.611,0,0,1,2629.712,853.786Z" transform="translate(-2589.763 -818.272)" fill="#fff"/>
        </g>
      </g>
      <g id="Group_332" data-name="Group 332" transform="translate(0 0)">
        <g id="Group_329" data-name="Group 329">
          <g id="Group_326" data-name="Group 326" transform="translate(0 4.181)">
            <path id="Path_385" data-name="Path 385" d="M469.267,755.365c0-54.5,51.85-97.421,112.883-95.939,58.022,1.409,103,42.814,103,92.541s-44.977,92.548-103,95.783C521.117,851.154,469.267,809.864,469.267,755.365Z" transform="translate(-469.267 -659.389)" fill="#26264f"/>
          </g>
          <g id="Group_327" data-name="Group 327" transform="translate(6.76)">
            <path id="Path_386" data-name="Path 386" d="M492.189,741.078c0-54.437,50.248-97.31,109.429-95.829,56.3,1.409,99.957,42.811,99.957,92.537s-43.661,92.5-99.957,95.68C542.437,836.807,492.189,795.515,492.189,741.078Z" transform="translate(-492.189 -645.212)" fill="url(#linear-gradient-32)"/>
          </g>
          <g id="Group_328" data-name="Group 328" transform="translate(24.06 15.056)" opacity="0.5" style="mix-blend-mode: soft-light;isolation: isolate">
            <path id="Path_387" data-name="Path 387" d="M550.855,776.805c0-45.6,42.027-81.626,91.674-80.513,47.378,1.062,84.226,35.852,84.226,77.748s-36.847,77.844-84.226,80.4C592.882,857.11,550.855,822.407,550.855,776.805Z" transform="translate(-550.855 -696.267)" fill="#fff"/>
          </g>
          <path id="Path_388" data-name="Path 388" d="M654.093,703.118c47.434,1.007,84.323,35.773,84.323,77.693a72.489,72.489,0,0,1-5.883,28.472,73.135,73.135,0,0,0,9.176-35.244c0-41.9-36.847-76.686-84.226-77.749-38.216-.856-71.911,20.313-85.42,51.008C587.358,720.367,618.8,702.37,654.093,703.118Z" transform="translate(-541.75 -681.21)" fill="#fff" opacity="0.5" style="mix-blend-mode: soft-light;isolation: isolate"/>
        </g>
        <g id="Group_331" data-name="Group 331" transform="translate(51.375 40.657)">
          <g id="Group_330" data-name="Group 330" transform="translate(24.589)">
            <path id="Path_389" data-name="Path 389" d="M850.593,810.911a69.477,69.477,0,0,0-12.96-16.441,6.227,6.227,0,0,1-.324-8.918l.278-.284a7.48,7.48,0,0,1,10.438-.128A83.023,83.023,0,0,1,862.6,803.357Z" transform="translate(-803.524 -783.083)" fill="#fff"/>
            <path id="Path_390" data-name="Path 390" d="M874.834,999.088a7.463,7.463,0,0,1-10.35,1.12l-.312-.246a6.225,6.225,0,0,1-1.095-8.847A63.657,63.657,0,0,0,877.2,946.009c-.011-.181-.035-.363-.057-.545l13.38-8.488a73.561,73.561,0,0,1,1.1,8.166A76.386,76.386,0,0,1,874.834,999.088Z" transform="translate(-821.943 -891.594)" fill="#fff"/>
            <path id="Path_391" data-name="Path 391" d="M792.891,863.848a45.83,45.83,0,0,0-8.849-12.341,6.27,6.27,0,0,1-.268-8.9l.047-.053a7.512,7.512,0,0,1,10.554-.1A60.154,60.154,0,0,1,804.8,856.346Z" transform="translate(-765.777 -823.453)" fill="#fff"/>
            <path id="Path_392" data-name="Path 392" d="M824.06,986.078a55.267,55.267,0,0,1-11.289,32.788,7.466,7.466,0,0,1-10.462,1.161l-.058-.043a6.284,6.284,0,0,1-1.138-8.825,43.7,43.7,0,0,0,7.341-15.176Z" transform="translate(-778.293 -926.216)" fill="#fff"/>
            <path id="Path_393" data-name="Path 393" d="M745.5,910.056l-12.634,7.959a21.925,21.925,0,0,0-4.348-8.461,6.67,6.67,0,0,1,.165-8.982l.023-.032a7.586,7.586,0,0,1,11.055.332A36.338,36.338,0,0,1,745.5,910.056Z" transform="translate(-726.866 -864.33)" fill="#fff"/>
          </g>
          <path id="Path_394" data-name="Path 394" d="M758.6,834.524l-4.1-5.593a3.385,3.385,0,0,0-4.476-.831l-105.1,66.292a2.9,2.9,0,0,0-.846,4.257l4.255,5.65a3.526,3.526,0,0,0,4.636.785L757.784,838.69A2.865,2.865,0,0,0,758.6,834.524Z" transform="translate(-643.483 -814.468)" fill="#fff"/>
        </g>
      </g>
    </g>
  </g>
</svg>
