<svg xmlns="http://www.w3.org/2000/svg" xmlns:xlink="http://www.w3.org/1999/xlink" width="406" height="395.103" viewBox="0 0 406 395.103">
  <defs>
    <linearGradient id="linear-gradient" y1="0.5" x2="1" y2="0.5" gradientUnits="objectBoundingBox">
      <stop offset="0" stop-color="#444b8c"/>
      <stop offset="0.996" stop-color="#26264f"/>
    </linearGradient>
    <linearGradient id="linear-gradient-2" y1="0.5" x2="1" y2="0.5" gradientUnits="objectBoundingBox">
      <stop offset="0" stop-color="#ab316d"/>
      <stop offset="1" stop-color="#792d3d"/>
    </linearGradient>
    <linearGradient id="linear-gradient-3" x1="0.577" y1="-0.444" x2="0.159" y2="5.206" gradientUnits="objectBoundingBox">
      <stop offset="0" stop-color="#ff9085"/>
      <stop offset="1" stop-color="#fb6fbb"/>
    </linearGradient>
    <linearGradient id="linear-gradient-4" x1="0.635" y1="-0.687" x2="0.12" y2="3.299" gradientUnits="objectBoundingBox">
      <stop offset="0.004" stop-color="#f36f56"/>
      <stop offset="1" stop-color="#ffc444"/>
    </linearGradient>
    <linearGradient id="linear-gradient-5" x1="0.629" y1="-0.654" x2="0.153" y2="3.227" gradientUnits="objectBoundingBox">
      <stop offset="0" stop-color="#ffc444"/>
      <stop offset="0.996" stop-color="#f36f56"/>
    </linearGradient>
    <linearGradient id="linear-gradient-6" x1="0.535" y1="-0.085" x2="0.01" y2="4.261" xlink:href="#linear-gradient-5"/>
    <linearGradient id="linear-gradient-7" x1="-12.609" y1="-3.356" x2="-18.157" y2="-0.276" xlink:href="#linear-gradient-4"/>
    <linearGradient id="linear-gradient-8" x1="19.516" y1="1.702" x2="15.816" y2="5.265" xlink:href="#linear-gradient-4"/>
    <linearGradient id="linear-gradient-9" x1="30.413" y1="-40.759" x2="27.799" y2="-34.827" xlink:href="#linear-gradient-4"/>
    <clipPath id="clip-path">
      <path id="Path_342" data-name="Path 342" d="M1968.317,2704.365l21.907-.481,21.3,13.012c.53.324.344,1.275-.251,1.288l-19.629.431Z" transform="translate(-1968.317 -2703.884)" fill="none"/>
    </clipPath>
    <linearGradient id="linear-gradient-10" x1="1.07" y1="0.5" x2="2.07" y2="0.5" gradientUnits="objectBoundingBox">
      <stop offset="0" stop-color="#6b3976"/>
      <stop offset="1" stop-color="#311944"/>
    </linearGradient>
    <linearGradient id="linear-gradient-11" x1="1.403" y1="0.393" x2="2.479" y2="0.901" xlink:href="#linear-gradient-3"/>
    <linearGradient id="linear-gradient-12" x1="-11.465" y1="30.308" x2="-10.452" y2="30.308" xlink:href="#linear-gradient"/>
    <linearGradient id="linear-gradient-13" x1="-63.036" y1="-2.008" x2="-62.327" y2="-3.701" xlink:href="#linear-gradient-5"/>
    <linearGradient id="linear-gradient-14" x1="1.39" y1="-0.163" x2="1.798" y2="-0.911" xlink:href="#linear-gradient-10"/>
    <linearGradient id="linear-gradient-15" x1="-18.709" y1="12.497" x2="-17.711" y2="12.497" xlink:href="#linear-gradient"/>
    <linearGradient id="linear-gradient-16" x1="-65.857" y1="-9.385" x2="-65.12" y2="-11.112" xlink:href="#linear-gradient-5"/>
    <linearGradient id="linear-gradient-17" x1="-5.755" y1="0.323" x2="-5.299" y2="1.128" xlink:href="#linear-gradient-10"/>
    <linearGradient id="linear-gradient-18" x1="-0.705" y1="-1.924" x2="-0.65" y2="-3.698" xlink:href="#linear-gradient-5"/>
    <linearGradient id="linear-gradient-19" x1="-11.52" y1="3.528" x2="-12.089" y2="1.904" gradientUnits="objectBoundingBox">
      <stop offset="0" stop-color="#311944"/>
      <stop offset="1" stop-color="#6b3976"/>
    </linearGradient>
    <linearGradient id="linear-gradient-20" x1="-13.593" y1="3.01" x2="-13.629" y2="6.173" xlink:href="#linear-gradient-5"/>
    <linearGradient id="linear-gradient-21" x1="6.938" y1="0.5" x2="7.938" y2="0.5" xlink:href="#linear-gradient-10"/>
    <linearGradient id="linear-gradient-22" x1="11.517" y1="0.5" x2="12.517" y2="0.5" xlink:href="#linear-gradient-3"/>
    <linearGradient id="linear-gradient-23" x1="-0.515" y1="-0.371" x2="-0.781" y2="2.594" xlink:href="#linear-gradient"/>
    <linearGradient id="linear-gradient-24" x1="-15.065" y1="-9.218" x2="-15.874" y2="-6.813" xlink:href="#linear-gradient"/>
    <linearGradient id="linear-gradient-25" x1="-53.132" y1="0.263" x2="-52.275" y2="6.405" xlink:href="#linear-gradient-5"/>
    <linearGradient id="linear-gradient-26" x1="0.77" y1="0.5" x2="1.77" y2="0.5" xlink:href="#linear-gradient-3"/>
    <linearGradient id="linear-gradient-27" x1="0.94" y1="0.5" x2="1.94" y2="0.5" xlink:href="#linear-gradient-3"/>
    <linearGradient id="linear-gradient-28" x1="0.805" y1="0.5" x2="1.805" y2="0.5" xlink:href="#linear-gradient-10"/>
    <linearGradient id="linear-gradient-29" x1="26.402" y1="1.574" x2="36.567" y2="-2.774" xlink:href="#linear-gradient-5"/>
    <linearGradient id="linear-gradient-30" x1="0.17" y1="0.815" x2="1.039" y2="-0.017" gradientUnits="objectBoundingBox">
      <stop offset="0" stop-color="#b9005f"/>
      <stop offset="0.996" stop-color="#e30059"/>
    </linearGradient>
    <linearGradient id="linear-gradient-31" x1="0.163" y1="0.807" x2="1.05" y2="-0.003" xlink:href="#linear-gradient-30"/>
    <linearGradient id="linear-gradient-32" x1="0.177" y1="0.825" x2="1.028" y2="-0.033" xlink:href="#linear-gradient-30"/>
  </defs>
  <g id="Group_334" data-name="Group 334" transform="translate(-428.921 -455)">
    <path id="Path_315" data-name="Path 315" d="M822.554,619.982c-7.876-52.123-14.2-88.144-42.637-107.883-47.97-33.294-101.543,20.755-169.495-15.513-33.457-17.857-34.711-38.561-63.046-41.309-50.131-4.862-91.185,55.63-94.743,60.817a133.091,133.091,0,0,0-20.075,106.6c5.692,23.8,9.538,48.431,8.482,72.886-1.837,42.562-.78,82.291,40.071,107.674,36.475,22.664,82.38,42.653,126.174,46.154,29.762,2.38,63.138-1.471,91.823-9.305C845.293,800.171,833.382,691.648,822.554,619.982Z" transform="translate(0 0)" fill="#f4f7fa"/>
    <g id="Group_279" data-name="Group 279" transform="translate(429.091 593.161)">
      <g id="Group_278" data-name="Group 278" transform="translate(0 0)">
        <path id="Path_316" data-name="Path 316" d="M860.137,2821.129,458.322,2817.7v10.134a5.394,5.394,0,0,0,4.126,5.506L576.069,2853.3a15.945,15.945,0,0,0,4.076.187l275.625-22.753c2.461-.2,4.366-2.55,4.366-5.375Z" transform="translate(-454.306 -2619.538)" fill="#26264f"/>
        <g id="Group_277" data-name="Group 277">
          <path id="Path_317" data-name="Path 317" d="M690.126,1610.933l-251.843,18.539a7.633,7.633,0,0,1-8.171-7.874v-187.54a8.331,8.331,0,0,1,8.171-8.476H690.126c3.713,0,6.715,3.43,6.715,7.662v169.533C696.841,1607.008,693.839,1610.66,690.126,1610.933Z" transform="translate(-430.113 -1425.582)" fill="#26264f"/>
          <path id="Path_319" data-name="Path 319" d="M776.495,1664.583l-234.565,16.1a6.258,6.258,0,0,1-6.648-6.463V1510.033a6.826,6.826,0,0,1,6.648-6.948l234.565-1.011c3.063-.013,5.54,2.8,5.54,6.278V1657.9C782.035,1661.382,779.557,1664.373,776.495,1664.583Z" transform="translate(-520.311 -1491.185)" fill="#ff7bac"/>
          <path id="Path_320" data-name="Path 320" d="M1427.859,1442.619a2.911,2.911,0,1,1-2.9-3.153A3.045,3.045,0,0,1,1427.859,1442.619Z" transform="translate(-1280.857 -1437.489)" fill="#fff"/>
          <path id="Path_321" data-name="Path 321" d="M466.492,1629.471l250.569-18.445,1.275-.094a6.76,6.76,0,0,0,4.436-2.245c-18.031-.987-29.231-7.386-36.455-14-14.508-13.278-11.992-26.372-27.637-35.1-19.514-10.889-34.858,2.909-49.666-10.7-8.977-8.253-4.57-14.408-15.617-26.741-12.235-13.661-20.2-9.068-32.5-21.363-15.547-15.546-7.772-27.641-21.164-38.8-16.247-13.54-33.768-1.008-49.234-13.993-6.67-5.6-10.331-13.743-12.242-22.4H466.493a8.331,8.331,0,0,0-8.171,8.476V1621.6A7.634,7.634,0,0,0,466.492,1629.471Z" transform="translate(-454.306 -1425.581)" fill="#fff" opacity="0.48" style="mix-blend-mode: soft-light;isolation: isolate"/>
        </g>
        <path id="Path_322" data-name="Path 322" d="M728.373,2720.125l-270.051,19.514,117.747,20.681a15.967,15.967,0,0,0,4.076.188l279.991-23.114-127.468-17.136A20.91,20.91,0,0,0,728.373,2720.125Z" transform="translate(-454.306 -2535.802)" fill="url(#linear-gradient)"/>
        <path id="Path_323" data-name="Path 323" d="M735.141,2759.377l224.826-16.488,69.582,9.279-222.889,17.625Z" transform="translate(-691.721 -2555.372)" fill="#26264f"/>
      </g>
    </g>
    <g id="Group_285" data-name="Group 285" transform="translate(459.223 515.212)">
      <g id="Group_283" data-name="Group 283" transform="translate(0 0)">
        <path id="Path_324" data-name="Path 324" d="M946.659,903.451v182.464c0,4.893-3.2,5.255-7.288,5.46l-101.476,6.412-184.07,11.628-2.456.156c-5.283.268-9.582-4.049-9.577-9.639l.124-192.689,0-15.755c0-5.585,4.275-9.927,9.558-9.7l.343.016,68.507,2.968,219.057,9.5C943.463,894.453,946.659,898.563,946.659,903.451Z" transform="translate(-641.791 -881.243)" fill="url(#linear-gradient-2)"/>
        <g id="Group_282" data-name="Group 282" transform="translate(3.771)">
          <g id="Group_281" data-name="Group 281">
            <g id="Group_280" data-name="Group 280">
              <path id="Path_325" data-name="Path 325" d="M973.258,1068.48v167.679c0,4.9-3.2,9.043-7.29,9.246l-104.811,5.263-183.277,9.2a8.7,8.7,0,0,1-1.351-.036,9.4,9.4,0,0,1-8.249-9.626l.095-191.553v-1.486l81.852,3.033,219.023,8.13Z" transform="translate(-668.28 -1031.661)" fill="#fff"/>
              <path id="Path_326" data-name="Path 326" d="M973.829,899.693v15.116l-3.987-.129-219.02-7.058-81.876-2.641V903.5L669,887.711a9.63,9.63,0,0,1,6.08-9.156,8.927,8.927,0,0,1,3.534-.557l64.605,2.8,223.321,9.7C970.63,890.678,973.829,894.794,973.829,899.693Z" transform="translate(-668.851 -877.99)" fill="url(#linear-gradient-3)"/>
              <path id="Path_327" data-name="Path 327" d="M774.685,945.414a4.158,4.158,0,0,1-4.208,4.311,4.549,4.549,0,0,1-4.217-4.632,4.156,4.156,0,0,1,4.223-4.311A4.551,4.551,0,0,1,774.685,945.414Z" transform="translate(-752.313 -931.841)" fill="#fff"/>
            </g>
          </g>
        </g>
      </g>
      <g id="Group_284" data-name="Group 284" transform="translate(30.335 49.141)">
        <path id="Path_328" data-name="Path 328" d="M1113.113,1279.586l-258.216-.563V1223.2l258.216,6.724Z" transform="translate(-854.897 -1223.205)" fill="#d8dee8"/>
        <path id="Path_329" data-name="Path 329" d="M965.4,1842.444,854.9,1847.094v-81.4l110.505-.806Z" transform="translate(-854.897 -1687.778)" fill="#d8dee8"/>
        <path id="Path_330" data-name="Path 330" d="M1916.085,1829.783l-124.943,5.25v-76.761l124.943-.905Z" transform="translate(-1657.869 -1681.33)" fill="#d8dee8"/>
      </g>
      <path id="Path_331" data-name="Path 331" d="M838.492,1097l-183.3,9.2a8.828,8.828,0,0,1-1.364-.036l-2.456.157c-5.283.268-9.582-4.049-9.577-9.64l.124-192.688,0-15.755c0-5.585,4.275-9.927,9.558-9.7l.343.016a8.877,8.877,0,0,1,3.524-.557l64.6,2.8c.134.238.258.476.383.72a64.806,64.806,0,0,1,7.231,25.005c.029.363.057.726.077,1.094.738,10.922-.967,23.877-7.034,38.869-16.758,41.441,1.882,82.619,27.186,98.987q1.172.762,2.364,1.442c7.78,4.487,16.092,6.632,24.134,5.745a61.459,61.459,0,0,1,41.2,9.794q2.267,1.543,4.386,3.308a55.4,55.4,0,0,1,18.032,28.767Q838.22,1095.749,838.492,1097Z" transform="translate(-641.791 -877.99)" fill="#d8dee8" opacity="0.3" style="mix-blend-mode: multiply;isolation: isolate"/>
    </g>
    <g id="Group_289" data-name="Group 289" transform="translate(497.424 583.998)">
      <g id="Group_287" data-name="Group 287" transform="translate(0 29.722)">
        <path id="Path_332" data-name="Path 332" d="M996.451,1579.391a2.417,2.417,0,0,0-2.4-.435l-55.162,20.1a2.417,2.417,0,0,0-.719,4.128l9.3,7.743-.048.035c-.312.244-.62.5-.921.764q-8.312,7.3-16.622,14.6-9.45,8.3-18.9,16.613a2.418,2.418,0,0,0,.044,3.669q15.878,13.33,31.639,26.559a2.394,2.394,0,0,0,.268.192l0,0s3.536,3.129,7.072-1.491c-.979-.258-2.02-.575-2.758-.809q4.748-7.518,9.513-15.022,7.457-11.735,14.96-23.43c.21-.324.4-.654.594-.986l9.8,8.164a1.727,1.727,0,0,0,.224.163,2.411,2.411,0,0,0,.616.29,5.779,5.779,0,0,0,3.93-.276c3.3-1.217,3.3-2.7,3.424-3.33.072-.361-1.984-.688-3.748-.9l10.694-54.038A2.418,2.418,0,0,0,996.451,1579.391Z" transform="translate(-910.157 -1577.558)" fill="url(#linear-gradient-4)"/>
        <g id="Group_286" data-name="Group 286" transform="translate(4.174)">
          <path id="Path_333" data-name="Path 333" d="M1000.273,1762.329c-5.494-4.577-15.768-3.461-23.532,2.353-.312.244-.62.5-.921.764q-8.312,7.3-16.622,14.6-9.45,8.3-18.9,16.613a2.418,2.418,0,0,0,.044,3.669l31.639,26.559a2.422,2.422,0,0,0,3.6-.56q5.235-8.294,10.492-16.568,7.457-11.735,14.96-23.43c.216-.333.417-.672.611-1.014C1006.189,1776.874,1005.741,1766.876,1000.273,1762.329Z" transform="translate(-939.482 -1732.528)" fill="url(#linear-gradient-5)"/>
          <path id="Path_334" data-name="Path 334" d="M1189.3,1570.594a2.418,2.418,0,0,0-2.4-.435l-55.162,20.1a2.417,2.417,0,0,0-.719,4.128l43.941,36.6a2.417,2.417,0,0,0,3.918-1.388l11.222-56.7A2.417,2.417,0,0,0,1189.3,1570.594Z" transform="translate(-1103.011 -1570.012)" fill="url(#linear-gradient-6)"/>
        </g>
      </g>
      <g id="Group_288" data-name="Group 288" transform="translate(71.834)">
        <path id="Path_335" data-name="Path 335" d="M1424.776,1372.314c1.2,6.923,1.4,12.69.5,13.022-.914.3-4.344-4.339-7.715-10.5s-3.738-12.392-.655-13.477C1419.991,1360.287,1423.581,1365.4,1424.776,1372.314Z" transform="translate(-1414.795 -1361.214)" fill="url(#linear-gradient-7)"/>
        <path id="Path_336" data-name="Path 336" d="M1595.4,1405.337c-5.093,4.84-9.776,8.21-10.554,7.645-.758-.593,1.2-6.022,4.45-12.249s8.229-9.991,10.844-8.03S1600.485,1400.5,1595.4,1405.337Z" transform="translate(-1560.498 -1387.774)" fill="url(#linear-gradient-8)"/>
        <path id="Path_337" data-name="Path 337" d="M1600.53,1617.867c-5.854-3.885-10.185-7.7-9.807-8.582.408-.871,6.137-.178,12.932,1.6s11.575,5.793,10.247,8.779C1612.558,1622.648,1606.377,1621.748,1600.53,1617.867Z" transform="translate(-1565.66 -1573.651)" fill="url(#linear-gradient-9)"/>
      </g>
    </g>
    <g id="Group_312" data-name="Group 312" transform="translate(648.051 586.299)">
      <g id="Group_290" data-name="Group 290" transform="translate(50.251 35.447)">
        <path id="Path_338" data-name="Path 338" d="M2324.424,1676.49c1.494,2.5,3.92,5.625,7,5.727,6,.2,10.636-11.221,12.212-15.1,6.862-16.894,3.2-30.04,10.365-36.378a18.044,18.044,0,0,1,8.772-4.223c.323-.041,3.545-.386,4.855.279,17.713,9-23.91,117.274-46.293,54.165C2325.066,1679.188,2323.694,1677.786,2324.424,1676.49Z" transform="translate(-2321.331 -1626.389)" fill="#606eb3"/>
        <path id="Path_339" data-name="Path 339" d="M2368.438,1677.787c.474-5.217-1.9-10.908,0-15.651,1.423-3.32,6.64-5.217,7.588-9.959.908-7.258-2.52-14.081-1.161-21.3.049-.045.094-.093.144-.138a18.046,18.046,0,0,1,8.772-4.223c.323-.041,3.545-.386,4.854.279,16.829,8.548-19.9,106.7-42.806,62.362,5.4-3.643,12.34-4.908,18.34-7.575C2365.592,1680.632,2367.964,1679.684,2368.438,1677.787Z" transform="translate(-2342.342 -1626.389)" fill="#606eb3"/>
      </g>
      <g id="Group_296" data-name="Group 296" transform="translate(0 125.408)">
        <path id="Path_340" data-name="Path 340" d="M2035.845,2323.007a2.142,2.142,0,0,1-2-2.9l19.529-51.837a15.306,15.306,0,0,1,15.833-9.831l21.447,2.135a2.14,2.14,0,0,1-.424,4.26l-21.447-2.135a11.037,11.037,0,0,0-11.4,7.08l-19.529,51.838A2.141,2.141,0,0,1,2035.845,2323.007Z" transform="translate(-2024.397 -2258.367)" fill="#a2a7ae"/>
        <g id="Group_295" data-name="Group 295" transform="translate(0 63.419)">
          <g id="Group_294" data-name="Group 294">
            <g id="Group_293" data-name="Group 293" style="isolation: isolate">
              <g id="Group_292" data-name="Group 292" clip-path="url(#clip-path)">
                <g id="Group_291" data-name="Group 291" transform="translate(2.017 0.052)">
                  <path id="Path_341" data-name="Path 341" d="M2025.7,2718.447l-21.1-12.894a8.565,8.565,0,0,0-4.673-1.3l-16.837.37c-.645.014-.833,1.147-.249,1.5l18.737,11.448a8.566,8.566,0,0,0,4.673,1.3l19.453-.427Z" transform="translate(-1982.483 -2704.249)" fill="#a2a7ae"/>
                </g>
              </g>
            </g>
          </g>
        </g>
      </g>
      <g id="Group_298" data-name="Group 298" transform="translate(56.601 64.189)">
        <path id="Path_343" data-name="Path 343" d="M2992.226,1917.932a2.144,2.144,0,0,1-2.112-2.5l7.958-46.588c.718-4.2,2.295-7.153,4.44-8.307a4.285,4.285,0,0,1,3.83-.159l7.789,3.426a2.141,2.141,0,0,1-1.724,3.919l-7.788-3.426c-.408.069-1.68,1.482-2.327,5.268l-7.958,46.589A2.142,2.142,0,0,1,2992.226,1917.932Z" transform="translate(-2901.237 -1855.488)" fill="url(#linear-gradient-10)"/>
        <g id="Group_297" data-name="Group 297">
          <path id="Path_344" data-name="Path 344" d="M2369.133,1911.778c15.441,4.707,35.357,4.36,48.6,5.172s14.6.405,21.971-4.559,9.612-9.669,11.844-18.447c4.785-18.825,7.284-40.247,10.182-59.863.45-3.045,12.745-4.661-.177-5.145-1.891-.071-31.094,2.037-32.175,2.113-8.478.59-7.235,1.8-7.8,4.979-3.16,17.848-5.9,39.516-9.055,56.212-1.971,10.416-6.481,14.391-15.493,15.725-8.572,1.269-16.255-2.711-24.551-4.94a5.186,5.186,0,0,0-6.064,3.162C2365.54,1908.553,2365.567,1910.648,2369.133,1911.778Z" transform="translate(-2365.94 -1828.845)" fill="url(#linear-gradient-11)"/>
          <path id="Path_345" data-name="Path 345" d="M2369.133,1911.778c15.441,4.707,40.19,6.618,53.437,7.43s10.8-.828,18.162-5.792,8.588-10.693,10.82-19.471c4.785-18.825,7.284-40.247,10.182-59.863.45-3.045,12.745-4.661-.177-5.145-1.891-.071-31.094,2.037-32.175,2.113-8.478.59-7.235,1.8-7.8,4.979-3.16,17.848-5.9,39.516-9.055,56.212-1.971,10.416-6.481,14.391-15.493,15.725-8.572,1.269-16.255-2.711-24.551-4.94a5.186,5.186,0,0,0-6.064,3.162C2365.54,1908.553,2365.567,1910.648,2369.133,1911.778Z" transform="translate(-2365.94 -1828.845)" fill="#97a6b7"/>
          <path id="Path_346" data-name="Path 346" d="M2721.775,1917.769a79.6,79.6,0,0,0,9.005.9c7.161-.006,13.015-1.758,18.659-6.814s9.567-9.739,11.542-18.549c4.236-18.893,7.4-40.635,9.964-60.149.456-3.472-1.268-4.738-3.909-4.845s-4.837,1.355-5.356,4.736c-2.915,19-5.611,41.311-9.947,59.385-2.7,11.276-9.91,15.9-19.766,16.929-2.854.3-6.48-.963-9.247-.809a4.318,4.318,0,0,0-4.442,4.217C2718.037,1915.2,2719.114,1917.438,2721.775,1917.769Z" transform="translate(-2668.096 -1828.304)" fill="#97a6b7"/>
          <path id="Path_347" data-name="Path 347" d="M2821.032,1906.5c6.209-2.627,7.642-9.791,8.6-16,1.194-8.6-2.627-17.194.478-25.314.955-2.627,4.3-4.776,5.015-7.4,1.8-9.02-2.783-22.412,3.18-29.449.034,0,.068,0,.1,0,2.642.106,4.366,1.372,3.91,4.845-2.564,19.514-5.728,41.256-9.964,60.149-1.975,8.81-5.9,13.493-11.542,18.549s-11.5,6.808-18.659,6.814c-.224,0-.456,0-.689-.011.076-.08.154-.158.229-.24C2807.181,1912.474,2813.629,1909.37,2821.032,1906.5Z" transform="translate(-2739.464 -1828.334)" fill="#a2a7ae" opacity="0.3" style="mix-blend-mode: multiply;isolation: isolate"/>
        </g>
      </g>
      <path id="Path_348" data-name="Path 348" d="M2592.211,1614.179c-4.737-1.332-15.392-2.647-23.894-3.127-12.126-.685-18.188-1.028-22.485,1.86-9.923,6.669-2.241,22.062-6.3,60.219-1.726,16.218-2.5,15.168,1.386,20.941,7.9,11.727,30.108,12.688,40.279,2.521,5.375-5.374,13.2,4.76,13.331-1.372C2595.037,1671.017,2607.262,1649.49,2592.211,1614.179Z" transform="translate(-2457.002 -1577.381)" fill="#fff"/>
      <g id="Group_299" data-name="Group 299" transform="translate(6.256 113.932)">
        <path id="Path_349" data-name="Path 349" d="M2025.369,2690.2c.91,1.137,1.042,2.515-.231,3.374s-3.126-.425-4.754-.737c-1.744-.335-4.219-.271-6.013-1.217-.725-.383-2.35-.871-2.078-2.072.192-.844,2.657-.7,3.453-.776a41.5,41.5,0,0,1,4.35-.416C2022.268,2688.548,2024.167,2688.7,2025.369,2690.2Z" transform="translate(-2012.263 -2615.666)" fill="url(#linear-gradient-12)"/>
        <path id="Path_350" data-name="Path 350" d="M2080.56,2661.537c-.889,1.534-1.913,2.981-2.816,4.506a3.794,3.794,0,0,0,3.189,1.368c1.121-1.5,2.392-2.86,3.589-4.293C2083.2,2662.6,2081.874,2662.081,2080.56,2661.537Z" transform="translate(-2068.423 -2592.67)" fill="url(#linear-gradient-13)"/>
        <path id="Path_351" data-name="Path 351" d="M2181.231,2192.717c9.388,16.075-3.926,5.887-15.338,5.213-12.019-.71-42.392-2.6-52.615,11.255-7.614,10.319-6.386,26.735-18.634,36.456a39.44,39.44,0,0,1-7.877,4.715c-2.65-1.289-4.725-3.375-7.62-4.141,1.192-18.24,4.065-29.715,14.078-46.29,2.421-4.007,12.827-15.207,18.4-18.166C2126.676,2173.76,2172.573,2177.892,2181.231,2192.717Z" transform="translate(-2069.626 -2177.75)" fill="url(#linear-gradient-14)"/>
      </g>
      <g id="Group_300" data-name="Group 300" transform="translate(19.447 108.8)">
        <path id="Path_352" data-name="Path 352" d="M2118.911,2740.521a2.417,2.417,0,0,1-.46,3.662c-1.282.97-3.342-.088-5.067-.289-1.849-.215-4.378.124-6.3-.727-.775-.344-2.412-.71-2.118-1.981.207-.893,2.785-.962,3.639-1.126,1.212-.233,3.776-.83,4.686-.848C2115.581,2739.165,2117.609,2738.9,2118.911,2740.521Z" transform="translate(-2104.934 -2654.118)" fill="url(#linear-gradient-15)"/>
        <path id="Path_353" data-name="Path 353" d="M2180.807,2705.574c-1.065,1.864-2.3,3.622-3.358,5.49a3.526,3.526,0,0,0,3.32,1.13c1.381-1.784,2.838-3.507,4.2-5.305C2183.576,2706.466,2182.187,2706.039,2180.807,2705.574Z" transform="translate(-2167.127 -2625.306)" fill="url(#linear-gradient-16)"/>
        <path id="Path_354" data-name="Path 354" d="M2285.589,2143.165c8.121,5.912,4.688,12.119,3.974,18.525-1.6,14.379-26.6,18.259-35.388,18.621-10.7.441-25.544-7.234-31.864-4.354-9.821,4.475-9.43,34.359-21.909,44.87a54.6,54.6,0,0,1-7.863,5.85,66.768,66.768,0,0,1-7.843-4.385c2.013-8.674,4.353-18.979,6.735-27.128,3.362-11.5,4.659-19.175,10.92-30.121,3.016-5.272,8.936-12.482,16.2-16.152,4.527-2.288,19.5-2.219,23.787-2.837C2252,2144.663,2279.971,2139.075,2285.589,2143.165Z" transform="translate(-2173.342 -2141.693)" fill="url(#linear-gradient-17)"/>
      </g>
      <g id="Group_302" data-name="Group 302" transform="translate(93.965)">
        <path id="Path_355" data-name="Path 355" d="M2647.009,1466.408a62.826,62.826,0,0,0,1.123,12.566c.65,3.347,1.119,4.212,1.717,4.913.9,1.056,2.264,1.942,9.972,3.853,4.194,1.04,4.734,1.012,4.826,1.428.452,2.031-10.985,8.951-22.8,7.283-7.231-1.021-13.811-5.146-13.407-7.313s7.63-1.01,9.783-4.955c1.5-2.744-.181-6.64-2.166-9.866C2637.978,1470.716,2645.087,1470.009,2647.009,1466.408Z" transform="translate(-2628.42 -1453.734)" fill="url(#linear-gradient-18)"/>
        <g id="Group_301" data-name="Group 301" transform="translate(0.345)">
          <path id="Path_356" data-name="Path 356" d="M2631.039,1387.89c.544-1.633,1.935-1.746,2.44-3.719.59-2.3-.98-3.4-.431-4.766.978-2.43,7.283-2.264,11.164-1.623,4.31.712,9.07,1.5,11.528,5.559,2.382,3.936,1.915,9.815-.641,11.423-1.4.878-2.546-.064-4.791.579-2.866.82-4.667,3.406-5.768,5.581a19.027,19.027,0,0,0-.894-3.183c-.876-2.307-1.212-3.5-2.01-3.787-1.568-.57-2.727,2.464-5.035,2.47C2633.549,1396.433,2629.957,1391.139,2631.039,1387.89Z" transform="translate(-2630.842 -1377.374)" fill="url(#linear-gradient-19)"/>
          <path id="Path_357" data-name="Path 357" d="M2672.7,1455.4a10.322,10.322,0,0,1-9.3,4.136c-5.39-.619-5.583-12.785-2-15.187a6.834,6.834,0,0,1,5.37-.426c1.093.365,1.446.844,3.243,1.406,1.658.519,2.141.356,2.627.808.608.565,1.008,1.9-.226,5.389,1.083-.994,2.341-1.333,3.2-.876a1.854,1.854,0,0,1,.686.737C2676.983,1452.814,2675.63,1454.52,2672.7,1455.4Z" transform="translate(-2654.977 -1434.154)" fill="url(#linear-gradient-20)"/>
        </g>
      </g>
      <g id="Group_303" data-name="Group 303" transform="translate(37.219 132.076)">
        <path id="Path_358" data-name="Path 358" d="M2400.843,2570.484a2.169,2.169,0,0,1-.268-.017l-85.806-10.713a2.141,2.141,0,0,1,.53-4.248l85.806,10.713a2.14,2.14,0,0,1-.263,4.264Z" transform="translate(-2301.063 -2519.863)" fill="#a2a7ae"/>
        <path id="Path_359" data-name="Path 359" d="M2231.924,2376.9a2.142,2.142,0,0,1-2-2.9l21.812-57.9a16.865,16.865,0,0,1,17.425-10.819l22.361,2.226a2.14,2.14,0,1,1-.424,4.26l-22.361-2.226a12.573,12.573,0,0,0-13,8.069l-21.812,57.9A2.141,2.141,0,0,1,2231.924,2376.9Z" transform="translate(-2229.783 -2305.21)" fill="#a2a7ae"/>
        <path id="Path_360" data-name="Path 360" d="M2435.978,2616.057a2.142,2.142,0,0,1-2.058-2.733l8.265-28.719a2.14,2.14,0,0,1,4.114,1.184l-8.265,28.719A2.141,2.141,0,0,1,2435.978,2616.057Z" transform="translate(-2404.789 -2543.506)" fill="#a2a7ae"/>
      </g>
      <g id="Group_305" data-name="Group 305" transform="translate(53.525 180.832)">
        <g id="Group_304" data-name="Group 304">
          <path id="Path_361" data-name="Path 361" d="M2344.33,2662.6a14.882,14.882,0,1,1,14.882,14.882A14.9,14.9,0,0,1,2344.33,2662.6Zm8.671,0a6.211,6.211,0,1,0,6.212-6.211A6.219,6.219,0,0,0,2353,2662.6Z" transform="translate(-2344.33 -2647.723)" fill="url(#linear-gradient-21)"/>
        </g>
        <circle id="Ellipse_4" data-name="Ellipse 4" cx="8.85" cy="8.85" r="8.85" transform="translate(7.363 5.505)" fill="url(#linear-gradient-22)"/>
      </g>
      <g id="Group_306" data-name="Group 306" transform="translate(45.763 68.335)">
        <path id="Path_362" data-name="Path 362" d="M2291.66,1857.868c10.936.234,22.4.622,33.391.979a1.424,1.424,0,0,1,1.585,1.165c4.7,14.018,8.823,28.633,13.187,42.7.462,1.49-.229,2.3-1.721,2.234-10.52-.459-21.49-.616-32.069-.8a1.4,1.4,0,0,1-1.568-1.164c-4.65-14.217-9.681-28.721-14.487-42.831C2289.469,1858.669,2290.1,1857.834,2291.66,1857.868Z" transform="translate(-2289.805 -1857.804)" fill="url(#linear-gradient-23)"/>
        <path id="Path_363" data-name="Path 363" d="M2315.628,1893.781c-1.495-6.743,1.751-12.8-1.939-18.59-3.8-5.958-10.958-5.276-15.9-10.187a17.91,17.91,0,0,1-4-7.476,17.571,17.571,0,0,0-2.168-.071c-1.192.229-2.179.8-1.663,2.3,4.888,14.171,9.84,28.609,14.522,42.86a1.387,1.387,0,0,0,1.56,1.144c5.326.165,10.9.142,16.253.226A21.194,21.194,0,0,1,2315.628,1893.781Z" transform="translate(-2289.809 -1857.426)" opacity="0.1" fill="url(#linear-gradient-24)" style="mix-blend-mode: multiply;isolation: isolate"/>
      </g>
      <g id="Group_308" data-name="Group 308" transform="translate(72.125 35.762)">
        <g id="Group_307" data-name="Group 307" transform="translate(13.746)">
          <path id="Path_364" data-name="Path 364" d="M2618.833,1714.474c6.239-3.331,5.055-12.989,10.445-31.724,2.175-7.562,3.377-13.254,3.567-20.222a67.014,67.014,0,0,0-.7-11.071c-.25-1.85-2.613-18.056-11.238-21.82a13.4,13.4,0,0,0-4.841-1.036c-4.71.025-8.125,3.034-9.821,4.529a25.474,25.474,0,0,0-4.614,5.61c-1.7,2.528-3.812,5.446-4.8,10.278-1.619,7.888.823,17.858,1.857,26.736.471,4.044,4.667,14.336,2.063,18.4-2.3,3.58-20.7-6.772-23.945-8.691a5.388,5.388,0,0,0-5.105,3.434c-1.448,3.627,9.4,23.86,28.925,26.725C2604.433,1716.177,2613.637,1717.249,2618.833,1714.474Z" transform="translate(-2571.567 -1628.602)" fill="#606eb3"/>
        </g>
        <path id="Path_365" data-name="Path 365" d="M2492.334,1975.292c-4-4.131-9.411-10.108-15.19-10.96s1.759,10.9,3.383,11.849a13.721,13.721,0,0,0,5.407,1.774c1.308.014.651-.066,1.592-.054.607.4,1.357.782,2.023,1.181C2491.438,1978.409,2492.459,1977.476,2492.334,1975.292Z" transform="translate(-2474.998 -1916.503)" fill="url(#linear-gradient-25)"/>
      </g>
      <g id="Group_311" data-name="Group 311" transform="translate(88.591 111.177)">
        <g id="Group_309" data-name="Group 309">
          <path id="Path_366" data-name="Path 366" d="M2604.267,2249.185a58.554,58.554,0,0,1,0-75.027c8.875-10.165,20.713-15.764,33.33-15.764s24.455,5.6,33.331,15.764a58.553,58.553,0,0,1,0,75.027c-8.875,10.166-20.712,15.764-33.331,15.764S2613.143,2259.351,2604.267,2249.185Zm-7.147-37.513c0,25.822,18.158,46.83,40.478,46.83s40.478-21.008,40.478-46.83-18.158-46.83-40.478-46.83S2597.12,2185.85,2597.12,2211.671Z" transform="translate(-2590.672 -2158.394)" fill="url(#linear-gradient-26)"/>
        </g>
        <path id="Path_367" data-name="Path 367" d="M2942.78,2380.7c-.039,0-.079,0-.119,0l-14.593-1.211a7.516,7.516,0,0,1-5.433-2.847,10.232,10.232,0,0,1-1.715-7.988l7.227-46.887a1.418,1.418,0,1,1,2.8.432l-7.226,46.887a7.466,7.466,0,0,0,1.139,5.8,4.75,4.75,0,0,0,3.439,1.777l14.592,1.211a1.418,1.418,0,0,1-.116,2.832Z" transform="translate(-2873.773 -2297.479)" fill="#fc77ae"/>
        <ellipse id="Ellipse_5" data-name="Ellipse 5" cx="35.695" cy="41.891" rx="35.695" ry="41.891" transform="translate(13.814 10.81)" fill="url(#linear-gradient-27)"/>
        <ellipse id="Ellipse_6" data-name="Ellipse 6" cx="5.392" cy="7.145" rx="5.392" ry="7.145" transform="translate(46.556 44.796)" fill="#fff" opacity="0.3"/>
        <g id="Group_310" data-name="Group 310" transform="translate(5.686 4.307)">
          <path id="Path_368" data-name="Path 368" d="M2642.97,2271.124a53.054,53.054,0,0,1,0-68.073c8.112-9.284,18.946-14.4,30.505-14.4s22.393,5.113,30.505,14.4a53.053,53.053,0,0,1,0,68.073c-8.112,9.284-18.946,14.4-30.505,14.4S2651.083,2280.407,2642.97,2271.124Zm-4.268-34.635c0,22.63,15.837,41.04,35.3,41.04s35.3-18.41,35.3-41.04-15.837-41.04-35.3-41.04S2638.7,2213.858,2638.7,2236.488Z" transform="translate(-2630.613 -2188.654)" fill="url(#linear-gradient-28)"/>
        </g>
      </g>
      <path id="Path_369" data-name="Path 369" d="M2309.492,1950.033c1.162-.117,1.992-2.7,2.088-4.6.315-6.34-7.185-11.7-8.44-10.838-.46.314.024,1.851.992,4.923C2305.283,1943.173,2307.507,1950.233,2309.492,1950.033Z" transform="translate(-2255.327 -1855.195)" fill="url(#linear-gradient-29)"/>
    </g>
    <g id="Group_333" data-name="Group 333" transform="translate(434.664 482.077)">
      <g id="Group_318" data-name="Group 318" transform="translate(143.774 4.181)">
        <g id="Group_316" data-name="Group 316">
          <g id="Group_313" data-name="Group 313" transform="translate(0 1.92)">
            <path id="Path_370" data-name="Path 370" d="M1479.282,732.133c0-24.979,22.575-44.687,49.174-44.048,25.313.608,44.951,19.59,44.951,42.425s-19.639,42.495-44.951,43.976C1501.857,776.042,1479.282,757.113,1479.282,732.133Z" transform="translate(-1479.282 -688.07)" fill="#26264f"/>
          </g>
          <g id="Group_314" data-name="Group 314" transform="translate(2.942)">
            <path id="Path_371" data-name="Path 371" d="M1499.949,718.595c0-24.952,21.88-44.638,47.673-44,24.561.608,43.625,19.59,43.625,42.423s-19.065,42.474-43.625,43.93C1521.829,762.478,1499.949,743.547,1499.949,718.595Z" transform="translate(-1499.949 -674.58)" fill="url(#linear-gradient-30)"/>
          </g>
          <g id="Group_315" data-name="Group 315" transform="translate(10.473 6.907)" opacity="0.5" style="mix-blend-mode: soft-light;isolation: isolate">
            <path id="Path_372" data-name="Path 372" d="M1552.854,760.081c0-20.905,18.3-37.447,39.944-36.968,20.668.458,36.754,16.408,36.754,35.643S1613.467,794.5,1592.8,795.67C1571.158,796.9,1552.854,780.987,1552.854,760.081Z" transform="translate(-1552.854 -723.104)" fill="#fff"/>
          </g>
          <path id="Path_373" data-name="Path 373" d="M1607.727,726.246c20.691.434,36.8,16.373,36.8,35.619a34.761,34.761,0,0,1-2.569,13.073,34.947,34.947,0,0,0,4.007-16.183c0-19.236-16.086-35.186-36.754-35.644-16.659-.368-31.338,9.359-37.221,23.439C1578.645,734.2,1592.344,725.924,1607.727,726.246Z" transform="translate(-1558.789 -716.195)" fill="#fff" opacity="0.5" style="mix-blend-mode: soft-light;isolation: isolate"/>
        </g>
        <g id="Group_317" data-name="Group 317" transform="translate(20.16 30.153)">
          <path id="Path_374" data-name="Path 374" d="M1783.156,946.553a6.4,6.4,0,0,1-6.532,6.329,6.527,6.527,0,0,1-6.564-6.433,6.4,6.4,0,0,1,6.564-6.328A6.528,6.528,0,0,1,1783.156,946.553Z" transform="translate(-1748.827 -932.473)" fill="#fff"/>
          <path id="Path_375" data-name="Path 375" d="M1648.7,886.408a33.181,33.181,0,0,0-27.8,13.8,33.781,33.781,0,0,0,27.8,14.246,32.636,32.636,0,0,0,27.226-13.807A33.233,33.233,0,0,0,1648.7,886.408Zm0,25.212a11.447,11.447,0,0,1-11.532-11.28,11.229,11.229,0,0,1,11.532-11.1,11.449,11.449,0,0,1,11.432,11.279A11.23,11.23,0,0,1,1648.7,911.62Z" transform="translate(-1620.905 -886.405)" fill="#fff"/>
          <path id="Path_376" data-name="Path 376" d="M1783.156,946.553a6.4,6.4,0,0,1-6.532,6.329,6.527,6.527,0,0,1-6.564-6.433,6.4,6.4,0,0,1,6.564-6.328A6.528,6.528,0,0,1,1783.156,946.553Z" transform="translate(-1748.827 -932.473)" fill="#fff"/>
        </g>
      </g>
      <g id="Group_325" data-name="Group 325" transform="translate(272.006 6.528)">
        <g id="Group_322" data-name="Group 322">
          <g id="Group_319" data-name="Group 319" transform="translate(0 1.832)">
            <path id="Path_377" data-name="Path 377" d="M2380.115,745.954c0-23.795,20.493-42.586,44.659-42,23.018.559,40.891,18.656,40.891,40.443s-17.873,40.534-40.891,41.931C2400.607,787.8,2380.115,769.749,2380.115,745.954Z" transform="translate(-2380.115 -703.942)" fill="#26264f"/>
          </g>
          <g id="Group_320" data-name="Group 320" transform="translate(2.67)">
            <path id="Path_378" data-name="Path 378" d="M2398.869,733.04c0-23.77,19.863-42.542,43.3-41.955a40.511,40.511,0,0,1,39.686,40.442,42.359,42.359,0,0,1-39.686,41.89C2418.732,774.857,2398.869,756.81,2398.869,733.04Z" transform="translate(-2398.869 -691.071)" fill="url(#linear-gradient-31)"/>
          </g>
          <g id="Group_321" data-name="Group 321" transform="translate(9.505 6.585)" opacity="0.5" style="mix-blend-mode: soft-light;isolation: isolate">
            <path id="Path_379" data-name="Path 379" d="M2446.886,772.592a35.445,35.445,0,0,1,36.284-35.25,34.03,34.03,0,0,1,33.431,33.978,35.582,35.582,0,0,1-33.431,35.2A33.939,33.939,0,0,1,2446.886,772.592Z" transform="translate(-2446.886 -737.333)" fill="#fff"/>
          </g>
          <path id="Path_380" data-name="Path 380" d="M2496.72,740.33a34.008,34.008,0,0,1,33.466,33.956,34.56,34.56,0,0,1-2.338,12.471,34.633,34.633,0,0,0,3.646-15.439,34.031,34.031,0,0,0-33.431-33.978,35.611,35.611,0,0,0-33.812,22.359A35.718,35.718,0,0,1,2496.72,740.33Z" transform="translate(-2452.275 -730.747)" fill="#fff" opacity="0.5" style="mix-blend-mode: soft-light;isolation: isolate"/>
        </g>
        <g id="Group_324" data-name="Group 324" transform="translate(29.843 18.107)">
          <g id="Group_323" data-name="Group 323" transform="translate(28.099 19.122)">
            <path id="Path_381" data-name="Path 381" d="M2803.475,1013.92a1.364,1.364,0,0,1-1.351,1.386l-6.326-.036a1.389,1.389,0,0,1-1.359-1.407h0a1.368,1.368,0,0,1,1.359-1.39l6.326.043a1.384,1.384,0,0,1,1.351,1.4Z" transform="translate(-2793.403 -1003.951)" fill="#fff"/>
            <path id="Path_382" data-name="Path 382" d="M2799.111,953.4a1.459,1.459,0,0,1-.748,1.885l-2.746,1.421a1.4,1.4,0,0,1-1.933-.5l-.015-.03a1.558,1.558,0,0,1,.7-1.994l2.749-1.419a1.488,1.488,0,0,1,1.979.609Z" transform="translate(-2792.628 -952.601)" fill="#fff"/>
            <path id="Path_383" data-name="Path 383" d="M2792.741,1068.026a1.474,1.474,0,0,0-.748-1.9l-2.748-1.455a1.391,1.391,0,0,0-1.934.478l-.015.03a1.574,1.574,0,0,0,.7,2l2.75,1.453a1.478,1.478,0,0,0,1.981-.585Z" transform="translate(-2787.162 -1048.553)" fill="#fff"/>
          </g>
          <path id="Path_384" data-name="Path 384" d="M2603.417,818.274a13.527,13.527,0,0,0-13.629,12.895l-.025.05.007.2.01.152c0,.149-.011.3-.011.454a14.322,14.322,0,0,0,.208,2.415l-.021.221,1.446,20.861v.009a11.931,11.931,0,0,0,.184,1.743,11.456,11.456,0,0,0,.485,1.951c1.266,3.959,4.508,6.767,8.287,6.763a7.742,7.742,0,0,0,5.231-2.07,10.226,10.226,0,0,0,3.169-5.177,12.281,12.281,0,0,0,.286-2.545,11,11,0,0,1,.192-1.9c.527-2.844,2.03-5.527,3.107-8.134,1.829-4.427,4.577-8.827,4.577-13.8A13.987,13.987,0,0,0,2603.417,818.274Zm5.63,17.141a1.261,1.261,0,0,1-1.483-.984c-.049-.223-1.267-5.472-6.21-5.539a4.38,4.38,0,0,0-4.188,2.845,6.8,6.8,0,0,0,.789,6.847c.241.269.507.559.792.868,2.705,2.946,6.783,7.387,6.394,12.055a8.283,8.283,0,0,1-3.591,5.92,1.229,1.229,0,0,1-.751.254,1.246,1.246,0,0,1-1-.514,1.3,1.3,0,0,1,.251-1.792,5.778,5.778,0,0,0,2.6-4.1c.295-3.532-3.326-7.47-5.728-10.082-.292-.317-.566-.616-.814-.892a9.418,9.418,0,0,1-1.245-9.626,6.766,6.766,0,0,1,6.493-4.346c5.575.081,8.09,4.991,8.642,7.574A1.26,1.26,0,0,1,2609.047,835.415Z" transform="translate(-2589.763 -818.272)" fill="#fff"/>
        </g>
      </g>
      <g id="Group_332" data-name="Group 332" transform="translate(0 0)">
        <g id="Group_329" data-name="Group 329">
          <g id="Group_326" data-name="Group 326" transform="translate(0 2.018)">
            <path id="Path_385" data-name="Path 385" d="M469.267,705.718c0-26.308,25.029-47.026,54.49-46.311,28.008.68,49.719,20.667,49.719,44.671s-21.711,44.674-49.719,46.236C494.3,751.956,469.267,732.025,469.267,705.718Z" transform="translate(-469.267 -659.389)" fill="#26264f"/>
          </g>
          <g id="Group_327" data-name="Group 327" transform="translate(3.263)">
            <path id="Path_386" data-name="Path 386" d="M492.189,691.488c0-26.278,24.256-46.973,52.823-46.258,27.175.68,48.251,20.666,48.251,44.669s-21.076,44.651-48.251,46.186C516.445,737.7,492.189,717.765,492.189,691.488Z" transform="translate(-492.189 -645.212)" fill="url(#linear-gradient-32)"/>
          </g>
          <g id="Group_328" data-name="Group 328" transform="translate(11.614 7.268)" opacity="0.5" style="mix-blend-mode: soft-light;isolation: isolate">
            <path id="Path_387" data-name="Path 387" d="M550.855,735.144c0-22.012,20.287-39.4,44.253-38.865,22.87.513,40.657,17.306,40.657,37.53s-17.787,37.576-40.657,38.808C571.142,773.908,550.855,757.156,550.855,735.144Z" transform="translate(-550.855 -696.267)" fill="#fff"/>
          </g>
          <path id="Path_388" data-name="Path 388" d="M611.661,699.574c22.9.486,40.7,17.268,40.7,37.5a34.991,34.991,0,0,1-2.84,13.744,35.3,35.3,0,0,0,4.429-17.013c0-20.224-17.787-37.017-40.657-37.53-18.447-.413-34.712,9.805-41.233,24.622C579.447,707.9,594.626,699.212,611.661,699.574Z" transform="translate(-557.431 -688.998)" fill="#fff" opacity="0.5" style="mix-blend-mode: soft-light;isolation: isolate"/>
        </g>
        <g id="Group_331" data-name="Group 331" transform="translate(24.799 19.626)">
          <g id="Group_330" data-name="Group 330" transform="translate(11.869)">
            <path id="Path_389" data-name="Path 389" d="M842.829,796.516a33.536,33.536,0,0,0-6.256-7.936,3.006,3.006,0,0,1-.156-4.3l.134-.137a3.611,3.611,0,0,1,5.038-.062,40.075,40.075,0,0,1,7.036,8.794Z" transform="translate(-820.108 -783.083)" fill="#fff"/>
            <path id="Path_390" data-name="Path 390" d="M868.043,966.958a3.6,3.6,0,0,1-5,.54l-.151-.119a3,3,0,0,1-.529-4.271,30.728,30.728,0,0,0,6.817-21.773c-.005-.088-.017-.175-.028-.263l6.459-4.1a35.5,35.5,0,0,1,.53,3.942A36.872,36.872,0,0,1,868.043,966.958Z" transform="translate(-842.513 -915.07)" fill="#fff"/>
            <path id="Path_391" data-name="Path 391" d="M787.284,851.686a22.124,22.124,0,0,0-4.271-5.957,3.027,3.027,0,0,1-.129-4.295l.022-.026a3.626,3.626,0,0,1,5.095-.05,29.038,29.038,0,0,1,5.031,6.707Z" transform="translate(-774.195 -832.187)" fill="#fff"/>
            <path id="Path_392" data-name="Path 392" d="M811.511,986.078a26.679,26.679,0,0,1-5.449,15.827,3.6,3.6,0,0,1-5.05.56l-.028-.021a3.034,3.034,0,0,1-.549-4.26,21.1,21.1,0,0,0,3.544-7.326Z" transform="translate(-789.419 -957.182)" fill="#fff"/>
            <path id="Path_393" data-name="Path 393" d="M735.863,903.979l-6.1,3.842a10.585,10.585,0,0,0-2.1-4.084,3.22,3.22,0,0,1,.079-4.336l.011-.015a3.662,3.662,0,0,1,5.336.16A17.545,17.545,0,0,1,735.863,903.979Z" transform="translate(-726.866 -881.907)" fill="#fff"/>
          </g>
          <path id="Path_394" data-name="Path 394" d="M699.05,830.94l-1.977-2.7a1.634,1.634,0,0,0-2.161-.4l-50.734,32a1.4,1.4,0,0,0-.408,2.055l2.054,2.727a1.7,1.7,0,0,0,2.238.379l50.6-32.049A1.383,1.383,0,0,0,699.05,830.94Z" transform="translate(-643.483 -821.258)" fill="#fff"/>
        </g>
      </g>
    </g>
  </g>
</svg>
