<svg xmlns="http://www.w3.org/2000/svg" width="36" height="36" viewBox="0 0 36 36">
  <g id="Group_577" data-name="Group 577" transform="translate(-458 -479)">
    <rect id="Rectangle_275" data-name="Rectangle 275" width="36" height="36" rx="12" transform="translate(458 479)" fill="#2f2f2f"/>
    <g id="Group_573" data-name="Group 573" transform="translate(463.705 488.005)">
      <path id="font-size" d="M170.848,107.069a1.8,1.8,0,0,1-1.8,1.8h-1.8v5.4a1.8,1.8,0,1,1-3.6,0v-5.4h-1.8a1.8,1.8,0,1,1,0-3.6h7.2a1.8,1.8,0,0,1,1.8,1.8Zm12.594-9H170.848a1.8,1.8,0,1,0,0,3.6h4.5v12.594a1.8,1.8,0,1,0,3.6,0V101.672h4.5a1.8,1.8,0,1,0,0-3.6Z" transform="translate(-160.053 -98.074)" fill="#fff"/>
    </g>
  </g>
</svg>
